<?xml version="1.0" encoding="UTF-8" standalone="no"?>
<svg
   xmlns:dc="http://purl.org/dc/elements/1.1/"
   xmlns:cc="http://creativecommons.org/ns#"
   xmlns:rdf="http://www.w3.org/1999/02/22-rdf-syntax-ns#"
   xmlns:svg="http://www.w3.org/2000/svg"
   xmlns="http://www.w3.org/2000/svg"
   xmlns:sodipodi="http://sodipodi.sourceforge.net/DTD/sodipodi-0.dtd"
   xmlns:inkscape="http://www.inkscape.org/namespaces/inkscape"
   width="64"
   height="64"
   version="1"
   id="svg48"
   sodipodi:docname="All.svg"
   inkscape:version="0.92.4 (5da689c313, 2019-01-14)">
  <metadata
     id="metadata54">
    <rdf:RDF>
      <cc:Work
         rdf:about="">
        <dc:format>image/svg+xml</dc:format>
        <dc:type
           rdf:resource="http://purl.org/dc/dcmitype/StillImage" />
        <dc:title></dc:title>
      </cc:Work>
    </rdf:RDF>
  </metadata>
  <defs
     id="defs52" />
  <sodipodi:namedview
     pagecolor="#ffffff"
     bordercolor="#666666"
     borderopacity="1"
     objecttolerance="10"
     gridtolerance="10"
     guidetolerance="10"
     inkscape:pageopacity="0"
     inkscape:pageshadow="2"
     inkscape:window-width="1908"
     inkscape:window-height="1044"
     id="namedview50"
     showgrid="false"
     inkscape:zoom="3.6875"
     inkscape:cx="-14.915254"
     inkscape:cy="32"
     inkscape:window-x="4"
     inkscape:window-y="28"
     inkscape:window-maximized="0"
     inkscape:current-layer="svg48" />
  <path
     style="opacity:0.2"
     d="m 4.050798,32.000828 c -0.0118,0.33399 -0.050799,0.661981 -0.050799,0.999971 C 3.9999994,48.512357 16.487643,61 31.9992,61 47.510757,61 59.998401,48.512357 59.998401,33.000799 c 0,-0.33767 -0.03904,-0.665261 -0.05078,-0.999971 -0.527985,15.041571 -12.775635,26.999229 -27.949202,26.999229 -15.173967,0 -27.4212171,-11.957658 -27.949202,-26.999229 z"
     id="path2" />
  <rect
     style="fill:#e4e4e4"
     width="56"
     height="56"
     x="4"
     y="4"
     rx="27.999"
     ry="27.999"
     id="rect4" />
  <path
     style="opacity:0.1;fill:#ffffff"
     d="M 32 4.0019531 C 16.488443 4.0019531 4 16.488443 4 32 C 4 32.113553 4.0112846 32.224036 4.0175781 32.335938 C 4.3691113 17.134615 16.711164 5 32 5 C 47.288836 5 59.630889 17.134615 59.982422 32.335938 C 59.988693 32.224116 60 32.113445 60 32 C 60 16.488443 47.511557 4.0019531 32 4.0019531 z"
     id="path6" />
  <g
     style="opacity:0.1"
     transform="translate(0,1)"
     id="g26">
    <rect
       width="8"
       height="8"
       x="28"
       y="28"
       rx="2.6"
       ry="2.6"
       id="rect8" />
    <rect
       width="8"
       height="8"
       x="39"
       y="28"
       rx="2.6"
       ry="2.6"
       id="rect10" />
    <rect
       width="8"
       height="8"
       x="17"
       y="28"
       rx="2.6"
       ry="2.6"
       id="rect12" />
    <rect
       width="8"
       height="8"
       x="28"
       y="17"
       rx="2.6"
       ry="2.6"
       id="rect14" />
    <rect
       width="8"
       height="8"
       x="39"
       y="17"
       rx="2.6"
       ry="2.6"
       id="rect16" />
    <rect
       width="8"
       height="8"
       x="17"
       y="17"
       rx="2.6"
       ry="2.6"
       id="rect18" />
    <rect
       width="8"
       height="8"
       x="28"
       y="39"
       rx="2.6"
       ry="2.6"
       id="rect20" />
    <rect
       width="8"
       height="8"
       x="39"
       y="39"
       rx="2.6"
       ry="2.6"
       id="rect22" />
    <rect
       width="8"
       height="8"
       x="17"
       y="39"
       rx="2.6"
       ry="2.6"
       id="rect24" />
  </g>
  <g
     id="g46">
    <rect
       style="fill:#eb6253"
       width="8"
       height="8"
       x="28"
       y="28"
       rx="2.6"
       ry="2.6"
       id="rect28" />
    <rect
       style="fill:#2181dd"
       width="8"
       height="8"
       x="39"
       y="28"
       rx="2.6"
       ry="2.6"
       id="rect30" />
    <rect
       style="fill:#4d9133"
       width="8"
       height="8"
       x="17"
       y="28"
       rx="2.6"
       ry="2.6"
       id="rect32" />
    <rect
       style="fill:#2181dd"
       width="8"
       height="8"
       x="28"
       y="17"
       rx="2.6"
       ry="2.6"
       id="rect34" />
    <rect
       style="fill:#2181dd"
       width="8"
       height="8"
       x="39"
       y="17"
       rx="2.6"
       ry="2.6"
       id="rect36" />
    <rect
       style="fill:#eb6253"
       width="8"
       height="8"
       x="17"
       y="17"
       rx="2.6"
       ry="2.6"
       id="rect38" />
    <rect
       style="fill:#4d9133"
       width="8"
       height="8"
       x="28"
       y="39"
       rx="2.6"
       ry="2.6"
       id="rect40" />
    <rect
       style="fill:#eb6253"
       width="8"
       height="8"
       x="39"
       y="39"
       rx="2.6"
       ry="2.6"
       id="rect42" />
    <rect
       style="fill:#4d9133"
       width="8"
       height="8"
       x="17"
       y="39"
       rx="2.6"
       ry="2.6"
       id="rect44" />
  </g>
</svg>
