<?xml version="1.0" encoding="UTF-8" standalone="no"?>
<svg
   xmlns:dc="http://purl.org/dc/elements/1.1/"
   xmlns:cc="http://creativecommons.org/ns#"
   xmlns:rdf="http://www.w3.org/1999/02/22-rdf-syntax-ns#"
   xmlns:svg="http://www.w3.org/2000/svg"
   xmlns="http://www.w3.org/2000/svg"
   xmlns:sodipodi="http://sodipodi.sourceforge.net/DTD/sodipodi-0.dtd"
   xmlns:inkscape="http://www.inkscape.org/namespaces/inkscape"
   width="64"
   height="64"
   version="1"
   id="svg12"
   sodipodi:docname="Other.svg"
   inkscape:version="0.92.4 (5da689c313, 2019-01-14)">
  <metadata
     id="metadata18">
    <rdf:RDF>
      <cc:Work
         rdf:about="">
        <dc:format>image/svg+xml</dc:format>
        <dc:type
           rdf:resource="http://purl.org/dc/dcmitype/StillImage" />
        <dc:title></dc:title>
      </cc:Work>
    </rdf:RDF>
  </metadata>
  <defs
     id="defs16" />
  <sodipodi:namedview
     pagecolor="#ffffff"
     bordercolor="#666666"
     borderopacity="1"
     objecttolerance="10"
     gridtolerance="10"
     guidetolerance="10"
     inkscape:pageopacity="0"
     inkscape:pageshadow="2"
     inkscape:window-width="1908"
     inkscape:window-height="1044"
     id="namedview14"
     showgrid="false"
     inkscape:zoom="3.6875"
     inkscape:cx="-14.915254"
     inkscape:cy="32"
     inkscape:window-x="4"
     inkscape:window-y="28"
     inkscape:window-maximized="0"
     inkscape:current-layer="svg12" />
  <path
     style="opacity:0.2"
     d="m 24,8 0,2 16,0 0,-2 -16,0 z M 4,51 4,53 c 0,1.662 1.338,3 3,3 l 50,0 c 1.662,0 3,-1.338 3,-3 l 0,-2 c 0,1.662 -1.338,3 -3,3 L 7,54 C 5.338,54 4,52.662 4,51 Z"
     id="path2" />
  <path
     style="fill:#e4e4e4"
     d="m 24,5 -4,4 0,6 -16,0 0,37 c 0,1.662 1.338,3 3,3 l 50,0 c 1.662,0 3,-1.338 3,-3 L 60,15 44,15 44,9 40,5 Z m 0,4 16,0 0,6 -16,0 z"
     id="path4" />
  <path
     style="opacity:0.2;fill-rule:evenodd"
     d="M 63.958,45.894 A 15,15 0 0 1 49,60 15,15 0 0 1 34.042,46.106 15,15 0 0 0 34,47 15,15 0 0 0 49,62 15,15 0 0 0 64,47 15,15 0 0 0 63.958,45.894 Z"
     id="path6" />
  <circle
     style="fill:#4ab3e4"
     cx="49"
     cy="46"
     r="15"
     id="circle8" />
  <path
     style="fill:#ffffff"
     d="m 52,37 0,8 3,0 -6,8 -6,-8 3,0 0,-8 z m -10,16.0004 14,0 0,2 -14,0 z"
     id="path10" />
</svg>
