<?xml version="1.0" encoding="UTF-8" standalone="no"?>
<!-- Created with Inkscape (http://www.inkscape.org/) -->

<svg
   xmlns:dc="http://purl.org/dc/elements/1.1/"
   xmlns:cc="http://creativecommons.org/ns#"
   xmlns:rdf="http://www.w3.org/1999/02/22-rdf-syntax-ns#"
   xmlns:svg="http://www.w3.org/2000/svg"
   xmlns="http://www.w3.org/2000/svg"
   xmlns:sodipodi="http://sodipodi.sourceforge.net/DTD/sodipodi-0.dtd"
   xmlns:inkscape="http://www.inkscape.org/namespaces/inkscape"
   width="256"
   height="256"
   viewBox="0 0 67.733332 67.733335"
   version="1.1"
   id="svg8"
   inkscape:version="0.92.2 5c3e80d, 2017-08-06"
   sodipodi:docname="internet.svg">
  <defs
     id="defs2" />
  <sodipodi:namedview
     id="base"
     pagecolor="#ffffff"
     bordercolor="#666666"
     borderopacity="1.0"
     inkscape:pageopacity="0.0"
     inkscape:pageshadow="2"
     inkscape:zoom="0.98994949"
     inkscape:cx="137.16115"
     inkscape:cy="112.15914"
     inkscape:document-units="mm"
     inkscape:current-layer="layer1"
     showgrid="false"
     units="px"
     inkscape:window-width="1280"
     inkscape:window-height="661"
     inkscape:window-x="0"
     inkscape:window-y="30"
     inkscape:window-maximized="1" />
  <metadata
     id="metadata5">
    <rdf:RDF>
      <cc:Work
         rdf:about="">
        <dc:format>image/svg+xml</dc:format>
        <dc:type
           rdf:resource="http://purl.org/dc/dcmitype/StillImage" />
        <dc:title />
      </cc:Work>
    </rdf:RDF>
  </metadata>
  <g
     inkscape:label="Layer 1"
     inkscape:groupmode="layer"
     id="layer1"
     transform="translate(0,-229.26665)">
    <path
       inkscape:connector-curvature="0"
       style="fill:#394050;fill-opacity:1;stroke:none;stroke-width:4.76226187"
       d="m 33.868645,234.50244 c -0.964392,0 -1.915734,0.054 -2.855503,0.14399 -3.900891,0.38698 -7.565904,1.56052 -10.845304,3.35773 -0.819679,0.44998 -1.622079,0.93596 -2.390443,1.45973 a 28.573561,28.573572 0 0 0 -0.613949,0.46438 c -0.537453,0.38878 -1.072746,0.77576 -1.581221,1.20054 a 28.573561,28.573572 0 0 0 -0.818419,0.74336 c -0.438998,0.39598 -0.879256,0.78656 -1.292876,1.20954 -0.01228,0.0126 -0.0252,0.018 -0.0378,0.036 a 28.573561,28.573572 0 0 0 -0.0648,0.054 28.573491,28.573648 0 0 0 0,0.009 28.573561,28.573572 0 0 0 -0.632489,0.70736 c -0.380141,0.41938 -0.761002,0.83336 -1.116124,1.27434 -0.0097,0.0121 -0.018,0.018 -0.0288,0.036 a 28.573561,28.573572 0 0 0 -0.102594,0.108 28.573491,28.573648 0 0 0 -0.316245,0.44638 28.573561,28.573572 0 0 0 -0.0846,0.10799 c -0.393101,0.52018 -0.777202,1.04395 -1.1348443,1.59112 a 28.573561,28.573572 0 0 0 -0.511522,0.84631 c -0.313904,0.51837 -0.620969,1.04215 -0.902295,1.58032 a 28.573561,28.573572 0 0 0 -0.427839,0.88376 c -0.279526,0.58497 -0.550232,1.17174 -0.7907,1.77651 -0.0097,0.018 -0.018,0.054 -0.027,0.072 a 28.573561,28.573572 0 0 0 -0.0558,0.108 28.573491,28.573648 0 0 0 -0.102595,0.31678 28.573561,28.573572 0 0 0 -0.0378,0.108 c -0.240288,0.64796 -0.466717,1.30313 -0.660387,1.97198 a 28.573561,28.573572 0 0 0 -0.102595,0.33478 28.573491,28.573648 0 0 0 -0.102595,0.45538 28.573561,28.573572 0 0 0 -0.0288,0.10799 c -0.165592,0.64797 -0.317324,1.29774 -0.437198,1.96245 a 28.573491,28.573648 0 0 0 -0.0093,0.036 28.573561,28.573572 0 0 0 -0.0468,0.22319 28.573491,28.573648 0 0 0 0,0.009 28.573561,28.573572 0 0 0 -0.018,0.16199 28.573491,28.573648 0 0 0 -0.0648,0.49318 c -0.08819,0.59397 -0.163791,1.18974 -0.214009,1.79451 a 28.573561,28.573572 0 0 0 -0.0468,0.38158 28.573491,28.573648 0 0 0 0,0.009 28.573561,28.573572 0 0 0 -0.0093,0.19619 28.573491,28.573648 0 0 0 -0.0648,1.72971 c -7.2e-5,0.018 0,0.054 0,0.072 0,0 0,0.009 0,0.009 a 28.573491,28.573648 0 0 0 0,0.018 28.573561,28.573572 0 0 0 0.140393,2.83684 28.573491,28.573648 0 0 0 0.0093,0.054 28.573561,28.573572 0 0 0 0.418479,2.76251 28.573491,28.573648 0 0 0 0,0.018 28.573491,28.573648 0 0 0 0,0.009 c 0.134993,0.66416 0.322184,1.30673 0.502355,1.95326 a 28.573561,28.573572 0 0 0 0.204649,0.79016 28.573491,28.573648 0 0 0 0.0093,0.036 c 0,0 0,0.009 0,0.009 0.138593,0.44637 0.323804,0.87475 0.483636,1.31213 a 28.573561,28.573572 0 0 0 0.0828,0.23219 c 0.134993,0.35998 0.241368,0.73616 0.39058,1.08894 a 28.573561,28.573572 0 0 0 0.0093,0.01 28.573491,28.573648 0 0 0 0,0.018 c 0.358542,0.84596 0.764602,1.66312 1.19982,2.4648 a 28.573561,28.573572 0 0 0 0.0468,0.09 28.573491,28.573648 0 0 0 0,0.01 28.573491,28.573648 0 0 0 4.8366833,6.44548 c 0.01238,0.0122 0.0342,0.036 0.0468,0.054 a 28.573491,28.573648 0 0 0 0.288346,0.29699 28.573491,28.573648 0 0 0 3.776319,3.06956 c 0.0666,0.054 0.129594,0.09 0.195291,0.14399 a 28.573491,28.573648 0 0 0 2.046281,1.24734 c 0.127794,0.072 0.252888,0.144 0.381401,0.21419 a 28.573491,28.573648 0 0 0 1.823057,0.88376 c 0.267287,0.12599 0.528454,0.25018 0.79988,0.36358 a 28.573491,28.573648 0 0 0 1.981161,0.71636 c 0.19277,0.072 0.382121,0.144 0.576691,0.19619 a 28.573491,28.573648 0 0 0 2.129996,0.54898 c 0.217249,0.054 0.431978,0.09 0.651027,0.14399 a 28.573491,28.573648 0 0 0 2.381137,0.36358 c 0.115195,0.013 0.228409,0.036 0.344143,0.054 a 28.573491,28.573648 0 0 0 2.818263,0.16199 28.573491,28.573648 0 0 0 22.044075,-10.4267 c 0.01427,-0.0173 0.0234,-0.036 0.0378,-0.054 a 28.573491,28.573648 0 0 0 0.297705,-0.34378 28.573491,28.573648 0 0 0 0.883576,-1.21854 c 0.179991,-0.25199 0.368081,-0.49497 0.539433,-0.75416 a 28.573491,28.573648 0 0 0 0.241728,-0.34378 28.573491,28.573648 0 0 0 0,-0.01 28.573491,28.573648 0 0 0 0.697645,-1.20054 c 0.161992,-0.28079 0.330643,-0.55977 0.483636,-0.84596 a 28.573491,28.573648 0 0 0 0.669746,-1.38593 c 0.20195,-0.43378 0.40552,-0.86576 0.586051,-1.31214 a 28.573491,28.573648 0 0 0 0.149392,-0.34378 28.573561,28.573572 0 0 0 0.278986,-0.82796 c 0.174592,-0.49137 0.354403,-0.98455 0.502355,-1.48852 a 28.573491,28.573648 0 0 0 0.120594,-0.38158 28.573491,28.573648 0 0 0 0,-0.009 28.573561,28.573572 0 0 0 0.0936,-0.40858 28.573491,28.573648 0 0 0 0.0828,-0.39058 c 0.0038,-0.0155 0.0057,-0.036 0.0095,-0.054 0.127794,-0.51837 0.255047,-1.03315 0.353502,-1.56232 a 28.573491,28.573648 0 0 0 0.0846,-0.38158 28.573491,28.573648 0 0 0 0.111595,-0.87476 c 0.0702,-0.49677 0.133193,-0.99175 0.176391,-1.49752 5.4e-4,-0.006 -5.22e-4,-0.0124 0,-0.018 a 28.573491,28.573648 0 0 0 0.0288,-0.18 28.573561,28.573572 0 0 0 0.0288,-0.25018 28.573491,28.573648 0 0 0 0,-0.018 28.573561,28.573572 0 0 0 0.0738,-1.9997 c 0,-0.006 0,-0.0124 0,-0.018 a 28.573561,28.573572 0 0 0 0,-0.009 c 0,-0.018 3.6e-5,-0.036 0,-0.054 a 28.573561,28.573572 0 0 0 -0.138593,-2.77186 28.573491,28.573648 0 0 0 0,-0.018 28.573561,28.573572 0 0 0 -0.0095,-0.036 28.573491,28.573648 0 0 0 0,-0.036 28.573561,28.573572 0 0 0 0,-0.009 c -0.0936,-0.92876 -0.237049,-1.84311 -0.418299,-2.74397 -0.189711,-0.94315 -0.426759,-1.86506 -0.706825,-2.77186 -0.567512,-1.83717 -1.315554,-3.59694 -2.223015,-5.2552 -0.458257,-0.83695 -0.960432,-1.65231 -1.497525,-2.43689 -0.511895,-0.74697 -1.058347,-1.46333 -1.637018,-2.15792 a 28.573561,28.573572 0 0 0 -0.706825,-0.78116 c -0.39814,-0.44278 -0.79376,-0.88375 -1.218539,-1.30133 a 28.573561,28.573572 0 0 0 -0.725544,-0.66057 c -0.447458,-0.41038 -0.894195,-0.81896 -1.367212,-1.20054 a 28.573561,28.573572 0 0 0 -0.706824,-0.52917 c -0.526294,-0.39958 -1.055108,-0.79196 -1.60912,-1.15375 a 28.573561,28.573572 0 0 0 -0.716184,-0.43737 c -0.568412,-0.34919 -1.145643,-0.68577 -1.739253,-0.99535 A 28.573561,28.573572 0 0 0 46.370393,237.433 c -0.667406,-0.32578 -1.341833,-0.63717 -2.036976,-0.91255 a 28.573561,28.573572 0 0 0 -0.409299,-0.14399 c -0.712765,-0.26819 -1.437949,-0.51298 -2.176488,-0.72537 a 28.573561,28.573572 0 0 0 -0.725543,-0.18539 c -0.705205,-0.18179 -1.41419,-0.34558 -2.139301,-0.47518 a 28.573561,28.573572 0 0 0 -0.474277,-0.072 c -0.736523,-0.126 -1.478086,-0.20879 -2.23232,-0.26999 a 28.573561,28.573572 0 0 0 -1.59976,-0.09 c -0.237408,-0.006 -0.468157,-0.036 -0.706825,-0.036 z m 0,4.7901 a 23.811251,23.811429 0 0 1 1.804446,0.09 c 0.19061,0.0176 0.382841,0.0173 0.576691,0.036 0.01505,0.003 0.0306,-0.002 0.0468,0 a 23.811251,23.811429 0 0 1 1.943975,0.29699 c 0.423878,0.09 0.842718,0.18899 1.283516,0.29698 1.221598,0.30059 2.432326,0.70917 3.571687,1.18974 0.628709,0.26459 1.185781,0.57418 1.785871,0.89276 0,0.036 0.0036,0.09 0,0.14399 0.138593,0.054 0.214369,0.31859 0.446557,0.44638 0.0864,0.054 0.0666,0.10799 0.149393,0.14399 0.138593,0.072 0.326144,0.16199 0.297705,0.29699 -0.0396,0.18899 -0.314264,0.14399 -0.446558,0.29698 0.018,0.27539 -0.226248,0.26099 -0.297705,0.44638 0.0432,0.12599 0.279706,0.16199 0.297705,0.29699 -0.0252,0.16199 -0.354762,0.14399 -0.297705,0.29698 0.257207,0.19979 0.501275,0.054 0.744083,0 0.532234,-0.072 1.01083,-0.036 1.339313,-0.29698 -0.0432,-0.25379 0.474996,-0.21779 0.446558,-0.44638 0.134993,0.10799 0.310664,0.19799 0.446558,0.29698 -0.0504,0.054 -0.0918,0.126 -0.149393,0.144 -0.100795,0.054 -0.20843,0.09 -0.297705,0.14399 -0.131394,0.09 -0.292845,0.19799 -0.446378,0.29698 -0.111594,0.072 -0.332263,0.44638 -0.446557,0.44638 -0.138594,0 -0.346483,-0.17999 -0.446558,-0.14399 -0.142193,0.054 -0.136793,0.24119 -0.297705,0.29698 -0.314265,0.108 -0.931094,-0.18359 -1.041788,0.28799 0.131393,0.27179 0.653547,0.14399 0.892935,0.29698 0.145793,0.09 0.40714,0.43018 0.446558,0.59578 0.0396,0.12599 0.0576,0.75056 0,0.89275 -0.145793,0.38158 -0.60243,0.30419 -1.041788,0.29699 h -0.297705 c -0.739403,-0.054 -1.453608,-0.37979 -1.785871,0.14399 0.0252,0.40318 0.09,0.69656 0,1.05115 -0.0684,0.25738 -0.460777,0.51297 -0.446558,0.73436 0.0071,0.10799 0.269087,0.28618 0.297705,0.44638 0.01786,0.09 -0.0396,0.21959 0,0.29698 0.124194,0.23219 0.373842,-0.054 0.595231,0 0.210769,0.054 0.446377,0.35998 0.446377,0.59577 0,0.16199 -0.0414,0.44098 -0.149392,0.60477 -0.21077,0.31499 -0.59289,0.27539 -0.892936,0.44638 -0.246407,0.14399 -0.300045,0.48778 -0.446377,0.73436 -0.156592,0.26819 -0.361962,0.36538 -0.297705,0.74337 -0.21437,0.42477 -0.449978,0.68936 -0.892936,0.89275 -0.127793,0.054 -0.328663,0.072 -0.446557,0.14399 -0.0972,0.072 -0.165592,0.29339 -0.297706,0.44638 -0.167391,0.18539 -0.357102,0.30419 -0.446557,0.44638 -0.0684,0.10799 -0.0774,0.29338 -0.149393,0.44638 -0.102595,0.19979 -0.314264,0.24658 -0.446557,0.44637 -0.0612,0.09 -0.081,0.32219 -0.149393,0.44638 -0.152992,0.27539 -0.326144,0.50218 -0.297705,0.74337 0.0252,0.22858 0.283306,0.23578 0.297705,0.44637 0.01429,0.108 -0.152992,0.162 -0.149392,0.29699 0.0071,0.18179 0.134993,0.30418 0.149392,0.44638 0.0324,0.35278 -0.233448,0.50397 -0.297705,0.74336 -0.0324,0.10799 0.0288,0.20519 0,0.29698 -0.0576,0.18 -0.294105,0.38518 -0.297705,0.59577 -0.0071,0.144 0.283306,0.23579 0.297705,0.44638 0.01071,0.14399 -0.178191,0.31499 -0.149393,0.44638 0.054,0.25739 0.544113,0.54357 0.744083,0.74336 0.271427,0.27179 0.626189,0.45898 0.744083,0.74337 0.100795,0.24298 0.111594,0.71096 0.297705,0.89275 0.138593,0.12599 0.416679,0.16199 0.59523,0.29699 0.167392,0.12599 0.271427,0.16199 0.446558,0.29698 0.289246,0.22859 0.729864,0.77036 1.190641,0.73436 0.242807,-0.054 0.472656,-0.24118 0.744082,-0.28798 0.282226,-0.054 0.60711,-0.17999 0.892936,-0.16199 0.217789,0.054 0.506134,0.17999 0.734723,0.16199 0.239208,-0.054 0.472656,-0.036 0.744083,-0.16199 0.471396,-0.20339 1.248957,-0.54718 1.934669,-0.44638 0.525034,0.072 0.525034,0.66057 0.892936,0.89275 0.417939,0.054 0.715284,-0.09 1.050967,0 0.253607,0.054 0.570212,0.40498 0.59523,0.60477 0.0252,0.20339 -0.269086,0.46258 -0.297705,0.59577 -0.0684,0.27539 0.0468,0.56878 0,0.74337 -0.0396,0.14399 -0.152992,0.30778 -0.149392,0.44638 0,0.12599 0.169191,0.43197 0.297705,0.59577 0.156592,0.19979 0.40246,0.37798 0.59523,0.59577 0.346483,0.39958 0.501275,0.80996 0.744083,1.33913 0.0612,0.12599 -0.0576,0.27538 0,0.44638 -0.102595,0.80096 -0.367902,1.34633 -0.892936,2.23224 -0.246407,0.28619 -0.608189,0.53638 -0.604589,0.89276 -0.018,0.85676 0.485795,1.40393 0.446377,2.23225 -0.08639,1.11414 0.0864,1.18974 0,1.78551 0.375102,0.18899 0.111595,0.79736 0,1.18974 -0.160192,0.47158 -0.357102,0.57957 -0.446377,0.89276 0.253607,0.10799 0.610709,0.072 0.892935,0 -0.142193,0.14399 -0.300045,0.30058 -0.446558,0.44637 -1.061767,1.06195 -2.269092,2.08394 -3.51589,2.9299 -0.0198,0.0133 -0.036,0.036 -0.0558,0.054 a 23.811311,23.811372 0 0 1 -0.0378,0.018 c -1.027209,0.69117 -2.123732,1.26714 -3.246138,1.80441 a 23.811311,23.811372 0 0 1 -1.125484,0.51118 c -0.896175,0.37258 -1.837852,0.65696 -2.7904,0.91075 a 23.811311,23.811372 0 0 1 -4.083258,0.69657 c -0.647068,0.036 -1.298635,0.072 -1.962568,0.072 -0.907155,0 -1.800144,-0.054 -2.67877,-0.16199 -0.234169,-0.018 -0.463657,-0.072 -0.697645,-0.09 a 23.811311,23.811372 0 0 1 -1.813752,-0.32579 c -1.187041,-0.29878 -2.324512,-0.77036 -3.441482,-1.20954 -0.0432,-0.09 -0.160192,-0.20159 -0.149392,-0.29698 0.246407,-0.108 0.710784,0.35458 0.892935,0 0.09,-0.16199 -0.116994,-0.57957 0,-0.74337 0.0864,-0.10799 0.569132,-0.10799 0.744083,-0.14399 0.253607,-0.054 0.60117,-0.09 0.744083,-0.14399 0.156592,-0.108 0.326143,-0.45178 0.297705,-0.74336 -0.01429,-0.144 -0.190431,-0.17999 -0.297705,-0.29699 -0.09,-0.10799 0.0612,-0.19799 0,-0.29698 -0.115195,-0.162 -0.40012,-0.20339 -0.446558,-0.44638 0.342883,-0.072 0.842898,0.28438 1.339313,0.14399 0.232188,-0.072 0.636988,-0.52557 0.744083,-0.74336 0.0324,-0.072 -0.0396,-0.21239 0,-0.29699 0.0432,-0.09 0.134993,-0.25198 0.149392,-0.29698 0.0324,-0.126 -0.0288,-0.072 0,-0.144 0.0864,-0.24298 0.303645,-0.41937 0.446558,-0.59577 0.109795,-0.12599 0.346483,-0.30778 0.446558,-0.44637 0.113394,-0.144 0.0702,-0.16199 0.149392,-0.29699 0.072,-0.43198 -0.252347,-0.81176 -0.149392,-1.19154 0.113394,-0.42838 0.776301,-0.69656 1.19064,-0.89275 0.142193,-0.072 0.328664,-0.108 0.446378,-0.144 0.285826,-0.10799 0.625109,-0.20519 0.892935,-0.29698 0.446558,-0.16199 0.526294,-0.48238 0.744083,-0.89276 0.102595,-0.18899 0.279706,-0.45537 0.297705,-0.59577 0.01786,-0.12599 -0.0252,-0.14399 0,-0.29698 0.0252,-0.144 -0.0396,-0.28619 0,-0.44638 0.054,-0.20339 0.149393,-0.66417 0.149393,-0.89276 0,-0.18899 -0.142193,-0.27538 -0.149393,-0.44637 -0.0324,-0.61737 0.217789,-0.55438 0.446558,-0.89276 0.113394,-0.16199 0.219049,-0.47338 0.297705,-0.59577 0.385721,-0.57237 1.088226,-0.77216 1.041788,-1.63612 -0.01785,-0.28618 -0.235788,-0.94855 -0.446558,-1.04215 -0.118794,-0.054 -0.271426,-0.09 -0.446557,-0.14399 -0.560852,-0.21059 -1.051328,-0.84596 -1.637019,-0.89275 h -0.297705 c -0.228588,0 -0.486875,-0.108 -0.744083,-0.144 -0.160192,-0.054 -0.498935,0.054 -0.59523,0 -0.145792,-0.072 -0.179991,-0.36358 -0.297705,-0.44637 -0.09719,-0.072 -0.300045,-0.09 -0.446378,-0.144 -0.232188,-0.09 -0.323803,-0.27898 -0.59523,-0.29698 -0.0864,0 -0.20483,0.054 -0.297705,0 -0.145793,-0.054 -0.307245,-0.072 -0.446558,-0.14399 -0.170991,-0.108 -0.375101,-0.144 -0.446557,-0.29699 0.156592,-0.51477 -0.342883,-0.59217 -0.446558,-0.89276 -0.0468,-0.14399 0.0468,-0.46977 0,-0.59577 -0.0612,-0.17999 -0.250008,-0.30058 -0.446558,-0.44637 -0.342883,-0.26819 -0.548792,-0.38518 -1.041788,-0.44638 -0.217789,-0.054 -0.483455,0.054 -0.744082,0 -0.275027,-0.054 -0.682166,-0.20699 -0.892936,-0.44638 -0.19997,-0.23219 -0.271426,-0.48417 -0.446558,-0.59577 -0.167391,-0.10799 -0.332263,-0.19079 -0.446557,-0.29698 -0.054,-0.054 -0.099,-0.036 -0.149393,-0.144 -0.0864,-0.17999 -0.252347,-0.23219 -0.149392,-0.44637 -0.189351,-0.09 -0.0936,0.18179 -0.297705,0.14399 -0.185751,-0.26099 -0.326144,-0.52198 -0.744083,-0.44638 -0.189351,0.054 -0.370242,0.44278 -0.59523,0.44638 -0.185751,0 -0.352423,-0.40678 -0.595231,-0.44638 -0.18575,-0.054 -0.466716,0.16199 -0.59523,0.14399 -0.20357,-0.054 -0.260807,-0.17999 -0.446558,-0.29698 -0.138593,-0.09 -0.371501,-0.30419 -0.446377,-0.29699 -0.239388,0 -0.4156,0.47338 -0.744083,0.29699 -0.160192,-0.20339 0.338203,-0.25739 0.149392,-0.44638 -0.142193,-0.14399 -0.18341,0.072 -0.297705,0.14399 -0.131393,0.09 -0.300045,0.09 -0.446557,0.144 -0.328664,0.12599 -0.635729,0.16199 -0.892936,0.29698 -0.239388,0.126 -0.307244,0.20339 -0.446377,0.44638 -0.111595,0.19979 -0.278627,0.58497 -0.446558,0.59577 -0.19997,0 -0.264227,-0.21059 -0.446378,-0.28799 -0.546453,-0.23938 -0.885736,0.144 -1.339313,0.144 -0.417939,0 -1.059607,-0.64437 -1.041788,-1.04215 0.01429,-0.24299 0.120594,-0.59217 0.149393,-0.89276 0.0252,-0.23938 0.294105,-0.52917 0.297705,-0.74336 0.0036,-0.29698 -0.554732,-0.41398 -0.744083,-0.44638 -0.446378,-0.09 -0.977351,0.19979 -1.488166,0 -0.09719,-0.16199 0.0918,-0.28618 0.149393,-0.44638 0.0324,-0.09 -0.0324,-0.19799 0,-0.29698 0.0576,-0.16199 0.375101,-0.28619 0.446558,-0.44638 0.054,-0.12599 -0.054,-0.28978 0,-0.44638 0.0612,-0.17999 0.283305,-0.32218 0.297705,-0.44637 0.01786,-0.162 -0.169192,-0.34199 -0.297705,-0.44638 -0.396521,0.054 -0.664347,0.036 -0.892936,0.14399 -0.514414,0.23219 -0.375101,0.87836 -0.892935,1.04215 -0.174591,0.054 -0.39526,0.10799 -0.59523,0.14399 -0.081,0.036 -0.186651,0.005 -0.278987,0 a 23.811251,23.811429 0 0 1 0.0093,-0.036 23.811311,23.811372 0 0 1 0.0093,-0.054 23.811251,23.811429 0 0 1 0,-0.018 23.811311,23.811372 0 0 1 0.0648,-0.24119 c 0.018,-0.036 0.0396,-0.054 0.0468,-0.09 0.339283,-1.54612 0.863237,-3.0467 1.488166,-4.46467 h 0.149392 c 0.182151,0.054 0.289246,0.28258 0.446558,0.29698 0.439358,0.054 0.532233,-0.40318 0.892935,-0.59577 0.371502,0.054 0.553653,-0.054 0.892936,0 0.228588,0.054 0.565531,0.27899 0.744082,0.29699 0.152993,0 0.154793,-0.16199 0.297706,-0.144 0.142192,0.054 0.421538,0.27539 0.446557,0.44638 0.0252,0.21419 -0.209509,0.50758 -0.149392,0.74337 0.224988,0.22858 0.720324,0.31498 1.041788,0.44637 0.210769,-0.17999 0.0324,-0.49677 0,-0.74336 -0.0036,-0.10799 0.01427,-0.34558 0,-0.44638 -0.0252,-0.17999 -0.149393,-0.30058 -0.149393,-0.44638 0,-0.68216 0.584611,-0.92695 1.041788,-1.18974 0.19637,-0.10799 0.423879,-0.35998 0.59523,-0.44637 0.242808,-0.126 0.395261,-0.036 0.595231,-0.144 0.360701,-0.20339 0.610709,-0.51117 0.892935,-0.74336 0.127794,-0.31138 -0.01427,-0.73436 0,-1.04215 0.127794,-0.09 0.307245,0 0.446558,0 0.217789,-0.054 0.321464,-0.32218 0.446557,-0.44637 0.072,-0.072 0.21185,-0.072 0.297705,-0.144 0.21779,-0.17999 0.257208,-0.37078 0.446558,-0.44638 0.0684,-0.054 0.19403,-0.12599 0.297705,-0.16199 0.142193,-0.054 0.366642,-0.072 0.59523,-0.14399 0.145793,-0.054 0.538174,-0.09 0.595231,-0.14399 0.072,-0.072 -0.01785,-0.33659 0,-0.44638 0.113394,-0.53997 0.857117,-0.56517 1.339313,-0.74336 0.332263,-0.126 0.679646,-0.51478 1.050967,-0.44638 -0.072,0.25739 -0.361962,0.28438 -0.297705,0.59577 0.0828,0.43198 0.59415,-0.09 0.744083,-0.14399 0.289245,-0.126 0.80276,-0.30419 1.181281,-0.44638 0.332083,-0.12599 0.918854,-0.20879 0.60459,-0.59577 -0.260807,-0.054 -0.376002,0.20519 -0.60459,0.29698 -0.156592,0.054 -0.156592,-0.12599 -0.288346,-0.14399 -0.127793,0 -0.169191,0.16199 -0.297705,0.14399 -0.127793,-0.054 -0.279706,-0.28978 -0.297705,-0.44637 -0.054,-0.39958 0.285826,-0.45178 0.446558,-0.74337 -0.111595,-0.35998 -0.589291,-0.16199 -0.892936,-0.29698 0.0324,-0.21419 0.192951,-0.39958 0.446558,-0.44638 0.20357,-0.054 0.767842,0.036 0.892935,0.14399 0.072,0.054 -0.111594,0.19799 0,0.29699 0.124194,0.10799 0.285646,0.054 0.446378,0 0.0576,-0.27179 -0.347562,-0.126 -0.297705,-0.29699 0.325064,-0.21059 0.942973,-0.09 1.339313,-0.14399 0.228589,-0.054 0.540513,-0.19079 0.744083,-0.29698 0.18935,-0.108 0.246408,-0.32759 0.446558,-0.144 0.0576,0.19619 -0.0378,0.34199 -0.149393,0.44638 -0.367902,0.32578 -0.755962,0.66597 -1.041788,1.04215 0.174591,0.17999 0.441878,0.12599 0.734723,0.16199 0.115195,0.054 0.328664,-0.036 0.446558,0 0.142193,0.054 0.332263,-0.054 0.446558,0 0.19997,0.054 0.246407,0.44638 0.446557,0.44638 0.325064,0 0.185751,-0.38698 0,-0.60477 0.0576,-0.22499 0.236689,-0.43378 0.158393,-0.59577 -0.145793,-0.29699 -0.715465,0.09 -0.744083,-0.29699 -0.01785,-0.23939 0.211849,-0.26458 0.297705,-0.44638 -0.0396,-0.45717 0.338383,-0.47877 0.288345,-0.89275 -0.0252,-0.17999 -0.170991,-0.12599 -0.288345,-0.28799 -0.0612,-0.09 -0.0864,-0.37798 -0.158392,-0.44637 -0.246408,-0.21059 -0.706285,-0.054 -0.734724,-0.44638 -0.01427,-0.23939 0.0324,-0.49138 0,-0.74336 -0.0324,-0.24299 -0.235788,-0.99175 -0.446557,-1.04215 -0.267827,-0.054 -0.426219,0.44458 -0.744083,0.59577 -0.170991,0.09 -0.569132,0.17999 -0.744083,0.14399 -0.115194,-0.054 -0.283306,-0.072 -0.297705,-0.29698 -0.01786,-0.20339 0.222649,-0.29339 0.297705,-0.44638 0.01677,-0.036 -0.0058,-0.09 0,-0.14399 a 23.811251,23.811429 0 0 1 2.018383,-0.45538 c 0.0216,-10e-4 0.045,0.005 0.0648,0 0.428199,-0.072 0.865397,-0.14399 1.302235,-0.20519 a 23.811251,23.811429 0 0 1 0.967272,-0.108 c 0.363761,-0.036 0.732383,-0.054 1.097585,-0.072 a 23.811251,23.811429 0 0 1 0.948732,-0.036 z m -9.664059,2.19517 v 0.009 c -0.149392,0.86756 -0.972491,1.21494 -1.943957,1.18974 -0.217789,0.21059 -0.027,0.60297 -0.149392,0.89276 -0.100795,0.24298 -0.501275,0.46437 -0.744083,0.44637 -0.174591,0 -0.446558,-0.27898 -0.446558,-0.44637 0,-0.20339 0.333164,-0.21059 0.158392,-0.44638 0.0071,-0.054 0.099,-0.09 0.149393,-0.144 0.0972,-0.054 0.20123,-0.09 0.297705,-0.16199 0.864317,-0.53277 1.746633,-0.92155 2.67877,-1.33913 z m 19.932672,0.89276 v 0.009 c -0.09,0.054 -0.0702,0.09 -0.149393,0.144 -0.18215,0.10799 -0.307244,0.24839 -0.446557,0.29698 -0.19637,0.072 -0.417939,0.126 -0.446558,0.29699 -0.0252,0.14399 0.152992,0.16199 0.149393,0.29698 -0.072,0.17999 -0.109795,0.23219 -0.149393,0.44638 0.242808,0.39598 0.741743,-0.09 1.041788,-0.16199 0.131393,-0.054 0.226249,-0.036 0.297705,-0.14399 0.0828,-0.126 0.0846,-0.26459 0.149393,-0.44638 0.0684,-0.19979 0.322724,-0.27179 0.297705,-0.44638 -0.018,-0.17999 -0.451238,-0.32218 -0.744083,-0.29698 z m -26.043619,2.98569 c 0.224989,0.18179 0.541773,0.57597 0.149393,0.74336 -0.0468,0.054 -0.620429,0.16199 -0.734723,0.14399 -0.0468,0 -0.115195,-0.10799 -0.158392,-0.14399 0.246407,-0.23939 0.490475,-0.51478 0.744082,-0.74336 z m 0.892936,0.89275 c 0.113394,0 0.165592,0.28979 0.297705,0.29699 0.127794,0 0.222649,-0.17999 0.297705,-0.162 0.19997,0.054 0.338203,0.45538 0.149393,0.60477 -0.156593,0.054 -0.183411,-0.17999 -0.297706,-0.16199 -0.325063,0.054 -0.501274,0.76496 -0.744082,0.74337 -0.228589,-0.054 -0.381041,-0.57958 -0.149393,-0.74337 0.0036,-0.14399 -0.01071,-0.14399 0,-0.28798 0.072,-0.09 0.257207,-0.31139 0.446558,-0.29699 z m -1.190641,0.14399 c 0.0684,0 0.133194,-0.054 0.158392,0 -0.0324,0.25379 -0.104394,0.32759 -0.297705,0.44638 -0.339283,0.20339 -0.636988,0.45718 -0.744083,0.89276 -0.0324,0.12599 -0.430898,0.47877 -0.59523,0.44637 -0.375101,-0.09 0.21185,-0.78296 0.297705,-0.89275 0.09719,-0.12599 0.181251,-0.16199 0.288346,-0.29699 0.111594,-0.12599 0.19403,-0.37078 0.297705,-0.44637 0.115194,-0.09 0.39526,-0.162 0.59523,-0.144 z m 32.284789,0.74337 h 0.0095 c 0.375102,-0.054 0.572732,0.36718 0.744083,0.59577 0.142193,0.18539 0.502715,0.46257 0.734724,0.59577 0.131393,0.072 0.300045,0.23399 0.446377,0.29698 0.310665,0.144 0.878716,0.58857 0.892936,0.89276 0.0071,0.16199 -0.170992,0.30418 -0.149393,0.44638 h 0.0095 c 0.229128,0.036 0.433598,-0.36179 0.437198,-0.59577 0.439358,0.61736 0.811939,1.27433 1.19064,1.93472 0.178191,0.31138 0.431079,0.57057 0.595231,0.89275 -0.21077,0.054 -0.265487,0.09 -0.297706,0.29699 -0.0468,0.26819 0.111595,0.69836 -0.288345,0.74336 -0.253608,0.054 -0.546453,-0.21959 -0.892936,-0.29698 -0.142192,-0.054 -0.332083,0.054 -0.446557,0 -0.261167,-0.09 -0.221929,-0.43378 -0.446918,-0.59577 -0.127794,-0.09 -0.540513,-0.27539 -0.744083,-0.29699 -0.127793,0 -0.165591,0.054 -0.297705,0 -0.160192,-0.054 -0.459517,0.072 -0.59523,0 -0.127794,-0.09 -0.414339,-0.33658 -0.446558,-0.44638 -0.054,-0.17999 0.435758,-0.29698 0.446558,-0.44637 0.01073,-0.108 -0.124194,-0.27179 -0.149393,-0.44638 -0.018,-0.108 0.0252,-0.22679 0,-0.29699 -0.0324,-0.12599 -0.250007,-0.14399 -0.446557,-0.14399 h -0.446558 c -0.210769,0 -0.632128,-0.036 -0.892935,0 h -0.446558 c -0.414339,0.054 -0.726084,-0.054 -1.050968,0 -0.232188,0 -0.675146,0.19799 -0.892935,0.29699 -0.109794,0.054 -0.145793,0.072 -0.288346,0.14399 -0.0684,0.054 -0.211849,0.10799 -0.297705,0.14399 -0.131393,0.054 -0.317864,0.26099 -0.446557,0.29699 -0.185751,0.054 -0.4084,-0.054 -0.744083,0 -0.242808,0 -0.588211,-0.162 -0.59523,-0.44638 -0.0071,-0.44278 0.772701,-0.21959 1.19064,-0.29699 0.156592,-0.054 0.257207,-0.18359 0.446558,-0.29698 0.08999,-0.054 0.063,-0.09 0.149392,-0.14399 0.142193,-0.108 0.421539,-0.33299 0.446558,-0.44638 0.018,-0.108 -0.01429,-0.21959 0,-0.29699 0.018,-0.10799 0.169192,-0.16199 0.297705,-0.29698 0.19997,-0.19979 0.345223,-0.46258 0.59523,-0.59577 0.167392,-0.09 0.371502,-0.16199 0.446558,-0.29699 0.018,-0.16199 -0.0071,-0.16199 0,-0.29698 0.102595,-0.09 0.211849,-0.126 0.297705,-0.144 0.257207,-0.054 0.434858,0 0.734723,0 0.127794,0 0.307245,0.054 0.446558,0 0.113395,-0.072 0.183411,-0.24118 0.297705,-0.29698 0.125994,-0.072 0.292846,-0.14399 0.446558,-0.14399 z m 2.67877,2.82766 h -0.586051 c -0.210769,0 -0.479496,-0.108 -0.604589,0 0.174591,0.28618 0.496415,0.37438 0.892935,0.44637 0.142193,-0.10799 0.233448,-0.26458 0.297705,-0.44637 z m -32.591727,-2.67881 h 0.446378 c 0.116994,0 0.251267,-0.054 0.297705,0 -0.0756,0.31498 -0.791781,0.26279 -1.041788,0.14399 0.01429,-0.12599 0.147592,-0.12599 0.297705,-0.14399 z m -1.041788,0.59577 c -0.20717,0.14399 -0.415599,0.34378 -0.744083,0.44638 -0.182151,0.054 -0.414339,0.054 -0.446558,-0.144 -0.0396,-0.24658 0.285826,-0.12599 0.446558,-0.14399 0.21077,-0.054 0.501275,-0.14399 0.744083,-0.14399 z m 30.954709,0 c -0.156592,0.054 -0.232188,0.39958 0,0.44638 0.109794,-0.072 0.178191,-0.24299 0.149392,-0.44638 -0.0612,-0.072 -0.099,-0.054 -0.149392,0 z m -0.297705,0.73436 v 0.009 c 0.0071,0.26819 0.054,0.51478 0,0.74337 0.152992,0.29698 0.516754,0.054 0.59523,-0.144 0.09,-0.49677 -0.0684,-0.66596 -0.297705,-0.60477 -0.0756,0.054 -0.219049,-0.054 -0.297705,0 z M 10.3548,259.78668 c 0.267827,0.24298 0.422619,0.58677 0.744083,0.74336 0.116994,0.054 0.292845,0.10799 0.446558,0.14399 0.124193,0.054 0.179991,-0.036 0.297705,0 0.253607,0.09 0.544113,0.20879 0.744083,0.29699 0.303644,0.12599 0.632128,0.59397 0.892935,0.74336 0.01427,0.16199 -0.0468,0.33298 0,0.44638 0.124194,0.16199 0.246408,0.33298 0.446378,0.44637 0.242808,0.126 0.366641,0.33839 0.59523,0.44638 0.0828,0.054 0.176391,-0.054 0.297705,0 0.314264,0.09 0.472656,0.52558 0.744083,0.44638 0.174591,-0.054 0.120594,-0.27539 0.149392,-0.44638 0.116995,-0.12599 0.260807,-0.29698 0.446558,-0.29698 0.296445,0 0.335683,0.45897 0.446378,0.74336 0.0612,0.16199 0.254867,0.27539 0.297705,0.44638 0.072,0.29698 0.0612,1.16454 0,1.33913 -0.0756,0.21779 -0.422439,0.20699 -0.60459,0.44638 -0.0864,0.10799 -0.081,0.36358 -0.149392,0.44638 -0.113395,0.14399 -0.21185,0.16199 -0.297706,0.29698 -0.0468,0.072 -0.106194,0.19799 -0.149392,0.29699 -0.142193,0.30418 -0.419019,0.52557 -0.297705,0.89275 0.0468,0.14399 0.297705,0.27179 0.297705,0.44638 0,0.21059 -0.414339,0.36358 -0.446558,0.59577 -0.0252,0.16199 0.0954,0.37078 0.149393,0.59577 0.0396,0.16199 0.346482,0.33658 0.446557,0.44638 0.167392,0.18539 0.292846,0.50937 0.446378,0.74336 0.300045,0.46078 0.451238,1.03495 0.744083,1.48853 0.156592,0.23218 0.488136,0.34918 0.59523,0.59577 0.054,0.12599 -0.0468,0.33298 0,0.44637 0.170992,0.38518 0.953593,0.84956 1.339313,1.04215 0.182151,0.09 0.436659,0.054 0.60459,0.16199 0.253607,0.144 0.764422,0.51298 0.892935,0.73437 0.115195,0.19979 0.0918,0.73256 0.149393,1.05114 0.072,0.41758 -0.01787,0.73077 0,1.18075 0.01427,0.24658 0.149393,0.35818 0.149393,0.60477 0,0.09 0.0036,0.35818 0,0.44637 -0.0036,0.29699 0.0252,0.59217 0,0.89276 -0.01429,0.16199 -0.01073,0.30778 0,0.44638 0.01427,0.14399 0.138593,0.16199 0.149392,0.28798 0.01071,0.14399 -0.163792,0.33658 -0.149392,0.44638 0.0324,0.30058 0.240468,0.46978 0.297705,0.74336 0.0468,0.21779 0.178191,0.77756 0.149392,1.04215 -0.01785,0.14399 -0.127793,0.28979 -0.149392,0.44638 -0.01429,0.12599 0.01785,0.18359 0,0.29698 -0.01296,0.108 0.01476,0.18719 0,0.26999 a 23.811311,23.811372 0 0 1 -0.446558,-0.26999 c -1.267857,-0.85675 -2.493037,-1.90142 -3.571688,-2.97651 -0.145792,-0.14399 -0.303644,-0.29698 -0.446557,-0.44638 -0.860717,-0.90715 -1.670317,-1.9349 -2.381119,-2.96715 -0.0648,-0.09 -0.0936,-0.20519 -0.158392,-0.29698 -0.825079,-1.23654 -1.491946,-2.48694 -2.074199,-3.86927 -0.0432,-0.10799 -0.115194,-0.19799 -0.158392,-0.29698 -0.503615,-1.23294 -0.892035,-2.54418 -1.181281,-3.86927 -0.054,-0.25019 -0.111594,-0.49318 -0.158392,-0.74336 -0.116994,-0.63537 -0.224089,-1.28154 -0.288345,-1.93473 -0.0738,-0.71636 -0.127794,-1.40573 -0.140393,-2.13001 a 23.811251,23.811429 0 0 1 -0.0093,-0.22319 23.811311,23.811372 0 0 1 0,-0.018 23.811311,23.811372 0 0 1 0.018,-0.27899 c 0.0216,-1.02774 0.131394,-2.00473 0.269627,-3.00423 z m 9.217574,2.53931 c 0.228588,-0.108 0.18575,0.26459 0,0.29698 -0.174592,0.054 -0.170992,-0.21239 0,-0.29698 z"
       class="ColorScheme-Text"
       id="path4" />
  </g>
</svg>
