<?xml version="1.0" encoding="UTF-8" standalone="no"?>
<!-- Created with Inkscape (http://www.inkscape.org/) -->

<svg
   xmlns:dc="http://purl.org/dc/elements/1.1/"
   xmlns:cc="http://creativecommons.org/ns#"
   xmlns:rdf="http://www.w3.org/1999/02/22-rdf-syntax-ns#"
   xmlns:svg="http://www.w3.org/2000/svg"
   xmlns="http://www.w3.org/2000/svg"
   xmlns:sodipodi="http://sodipodi.sourceforge.net/DTD/sodipodi-0.dtd"
   xmlns:inkscape="http://www.inkscape.org/namespaces/inkscape"
   width="256"
   height="256"
   viewBox="0 0 67.733332 67.733335"
   version="1.1"
   id="svg8"
   inkscape:version="0.92.2 5c3e80d, 2017-08-06"
   sodipodi:docname="cikis.svg">
  <defs
     id="defs2" />
  <sodipodi:namedview
     id="base"
     pagecolor="#ffffff"
     bordercolor="#666666"
     borderopacity="1.0"
     inkscape:pageopacity="0.0"
     inkscape:pageshadow="2"
     inkscape:zoom="0.98994949"
     inkscape:cx="137.16115"
     inkscape:cy="112.15914"
     inkscape:document-units="mm"
     inkscape:current-layer="layer1"
     showgrid="false"
     units="px"
     inkscape:window-width="1366"
     inkscape:window-height="715"
     inkscape:window-x="0"
     inkscape:window-y="24"
     inkscape:window-maximized="1" />
  <metadata
     id="metadata5">
    <rdf:RDF>
      <cc:Work
         rdf:about="">
        <dc:format>image/svg+xml</dc:format>
        <dc:type
           rdf:resource="http://purl.org/dc/dcmitype/StillImage" />
        <dc:title />
      </cc:Work>
    </rdf:RDF>
  </metadata>
  <g
     inkscape:label="Layer 1"
     inkscape:groupmode="layer"
     id="layer1"
     transform="translate(0,-229.26665)">
    <path
       sodipodi:nodetypes="ccccccsssccssscc"
       style="fill:#394050;fill-opacity:1;stroke:none;stroke-width:0.13846025"
       d="m 32.447155,234.36473 v 25.17459 h 3.146818 v -25.17459 z m -4.720301,3.93353 c -12.604374,2.8678 -22.0277614,14.062 -22.0277614,27.53471 0,15.64148 12.6799264,28.32141 28.3214154,28.32141 15.641481,0 28.321406,-12.67993 28.321406,-28.32141 0,-13.47271 -9.423386,-24.66691 -22.027761,-27.53471 v 3.14682 c 10.865898,2.78921 18.880934,12.65191 18.880934,24.38789 0,13.90354 -11.271039,25.17458 -25.174579,25.17458 -13.903549,0 -25.1745976,-11.27104 -25.1745976,-25.17458 0,-11.73598 8.0150366,-21.59868 18.8809436,-24.38789 z"
       id="path3019"
       inkscape:connector-curvature="0" />
  </g>
</svg>
