<?xml version="1.0" encoding="UTF-8" standalone="no"?>
<!-- Created with Inkscape (http://www.inkscape.org/) -->

<svg
   xmlns:dc="http://purl.org/dc/elements/1.1/"
   xmlns:cc="http://creativecommons.org/ns#"
   xmlns:rdf="http://www.w3.org/1999/02/22-rdf-syntax-ns#"
   xmlns:svg="http://www.w3.org/2000/svg"
   xmlns="http://www.w3.org/2000/svg"
   xmlns:sodipodi="http://sodipodi.sourceforge.net/DTD/sodipodi-0.dtd"
   xmlns:inkscape="http://www.inkscape.org/namespaces/inkscape"
   version="1.1"
   id="svg2"
   width="256"
   height="256"
   viewBox="0 0 256 256"
   sodipodi:docname="Milis-logo.svg"
   inkscape:version="0.92.2 5c3e80d, 2017-08-06">
  <metadata
     id="metadata8">
    <rdf:RDF>
      <cc:Work
         rdf:about="">
        <dc:format>image/svg+xml</dc:format>
        <dc:type
           rdf:resource="http://purl.org/dc/dcmitype/StillImage" />
        <dc:title></dc:title>
      </cc:Work>
    </rdf:RDF>
  </metadata>
  <defs
     id="defs6" />
  <sodipodi:namedview
     pagecolor="#ffffff"
     bordercolor="#666666"
     borderopacity="1"
     objecttolerance="10"
     gridtolerance="10"
     guidetolerance="10"
     inkscape:pageopacity="0"
     inkscape:pageshadow="2"
     inkscape:window-width="1366"
     inkscape:window-height="715"
     id="namedview4"
     showgrid="false"
     inkscape:zoom="0.99331665"
     inkscape:cx="-125.176"
     inkscape:cy="152.75732"
     inkscape:window-x="0"
     inkscape:window-y="24"
     inkscape:window-maximized="1"
     inkscape:current-layer="svg2" />
  <path
     style="fill:#394050;stroke-width:0.35320213;fill-opacity:1"
     d="m 158.8438,205.93893 c -0.14749,-0.23864 -0.27683,-1.94726 -0.28742,-3.79692 -0.017,-2.9632 -0.13453,-3.58209 -0.98889,-5.20559 -0.5333,-1.01342 -0.96964,-2.00473 -0.96964,-2.20292 0,-0.19821 0.6755,-0.0489 1.50111,0.33174 3.52959,1.62736 8.36202,3.51199 10.29438,4.01477 3.08773,0.80339 6.54032,3.82381 3.69896,3.23595 -1.12318,-0.23237 -1.67321,-0.55034 -5.04773,-2.91802 -1.08283,-0.75975 -1.78855,-0.97216 -3.23003,-0.97216 -2.98775,0 -4.5097,1.93327 -4.51844,5.73954 -0.006,2.34574 -0.0327,2.45262 -0.4523,1.77361 z m -45.6898,-2.61609 c 0,-2.86671 0.63144,-4.94932 2.82338,-9.31208 1.67052,-3.32496 4.93479,-6.97678 10.15679,-11.36268 1.60265,-1.34606 2.91338,-2.63814 2.91271,-2.87129 -10e-4,-0.31297 -1.59548,-0.42632 -6.09273,-0.43306 -4.22021,-0.007 -6.52079,-0.15777 -7.48886,-0.49294 l -1.39733,-0.48378 3.86974,-1.83813 c 7.23144,-3.43494 14.92574,-10.10252 15.56006,-13.48375 0.52349,-2.79042 -1.29134,-2.25746 -4.88927,1.43584 -2.69123,2.76256 -3.93172,3.38677 -6.73876,3.39085 -1.93153,0.003 -5.88842,1.43193 -9.77534,3.53053 -5.04268,2.72263 -9.92776,4.99197 -11.19726,5.20164 -1.295609,0.21399 -3.525507,-0.92809 -5.150391,-2.63785 l -0.983359,-1.03473 1.43101,-0.99169 c 1.741661,-1.20697 3.98319,-3.63122 3.73253,-4.03678 -0.445764,-0.72128 -3.58966,-1.11612 -7.06805,-0.8877 l -3.595686,0.23613 -1.27389,-1.48824 c -0.700632,-0.81854 -1.722578,-2.35136 -2.27098,-3.40626 -0.805345,-1.54916 -0.904418,-1.97606 -0.515211,-2.21986 0.265023,-0.16602 2.215891,-0.50159 4.335247,-0.74569 3.667353,-0.42242 3.842663,-0.4799 3.63147,-1.19042 -0.646349,-2.17461 -1.47846,-2.75332 -6.152781,-4.27916 -5.221664,-1.7045 -7.388967,-3.04276 -9.206888,-5.68501 l -1.102597,-1.60258 3.467794,0.25456 3.467793,0.25455 -0.55445,-0.8489 c -0.544174,-0.83314 -2.090813,-2.06597 -8.07121,-6.43357 -3.494979,-2.55245 -5.108859,-4.51131 -5.444103,-6.6078 -0.131932,-0.82506 -0.170751,-1.56924 -0.08631,-1.65372 0.08444,-0.0844 0.896637,0.41356 1.804786,1.10676 0.908138,0.69321 1.848693,1.26037 2.090129,1.26037 0.241424,0 1.298603,0.64137 2.349291,1.42529 2.306575,1.72094 3.293831,2.19347 16.769773,8.02652 12.592893,5.45084 18.698563,7.75163 25.597743,9.64599 12.0525,3.30934 16.08368,3.60236 23.84113,1.73294 4.81922,-1.16135 5.13775,-1.19178 12.53868,-1.19817 6.46598,-0.006 8.19712,0.11188 11.65567,0.79088 4.53805,0.89094 7.92925,1.7872 7.6853,2.03116 -0.15719,0.15719 -7.77973,1.01285 -12.89503,1.4475 -1.4084,0.11968 -2.56072,0.32588 -2.56072,0.45824 0,0.68736 3.6601,3.24733 7.82295,5.47159 l 2.85194,1.52381 -3.30653,1.65504 c -1.81859,0.91026 -3.86283,1.98617 -4.54274,2.39089 -1.39484,0.83029 -3.53202,2.74089 -3.53202,3.15756 0,0.15116 0.51656,0.5498 1.1479,0.88585 0.95501,0.50831 2.40602,0.63512 8.63412,0.75458 6.78521,0.13014 7.54274,0.20607 8.09008,0.81089 0.77274,0.85386 1.96022,0.84348 4.47135,-0.0391 1.10542,-0.38852 2.45091,-0.70552 2.98998,-0.70443 1.37257,0.003 3.62914,0.67071 3.62914,1.07424 0,0.18513 -0.12384,0.3366 -0.2752,0.3366 -0.15135,0 -0.88829,0.5955 -1.63762,1.32332 l -1.36243,1.32333 0.22682,5.12261 c 0.12475,2.81744 0.32629,6.35441 0.44787,7.85993 l 0.22105,2.73732 h -2.21312 -2.21312 l 0.1769,2.47241 c 0.0972,1.35983 0.10916,2.47242 0.0264,2.47242 -0.0828,0 -1.77018,-1.16333 -3.74976,-2.58516 -1.97959,-1.42184 -5.28893,-3.72603 -7.3541,-5.12042 l -3.75486,-2.53524 -2.13536,0.22318 -2.13536,0.22319 -2.83944,-5.67052 c -2.65889,-5.30997 -3.57594,-6.76553 -3.56579,-5.65971 0.002,0.2543 0.47916,2.83944 1.0596,5.74476 1.50106,7.51321 1.50244,7.50588 -1.15616,6.14957 -0.81234,-0.41443 -1.91859,-0.88015 -2.45834,-1.03495 -0.97436,-0.27944 -0.98137,-0.26953 -0.98137,1.38898 v 1.67043 l -1.14791,-0.13221 c -1.56198,-0.17991 -7.16408,1.00281 -13.91051,2.9368 -11.20729,3.21276 -17.24302,6.00502 -21.23309,9.8229 l -1.50111,1.43632 z m 70.79296,-1.93136 c -0.0258,-4.13609 -0.004,-4.17757 1.84072,-3.47624 0.53881,0.20485 3.54593,0.51931 6.6825,0.69879 7.9161,0.45299 8.54798,0.8288 2.23829,1.33122 -2.79742,0.22275 -5.68658,0.57669 -6.42037,0.78653 -1.55636,0.4451 -3.78486,2.27654 -3.79268,3.11692 -0.003,0.31984 -0.12218,0.76376 -0.26491,0.9865 -0.14271,0.22273 -0.27032,-1.32695 -0.28355,-3.44372 z m 16.58152,-14.66927 c 0.64601,-3.68804 0.667,-4.70064 0.11485,-5.54331 -0.6389,-0.97507 -2.46262,-1.45928 -3.46856,-0.92091 -0.56537,0.30257 -0.64743,0.59569 -0.45461,1.62357 0.22373,1.19256 0.19865,1.23471 -0.50928,0.85583 -1.4682,-0.78575 -1.78313,-2.12126 -0.96306,-4.08394 l 0.50412,-1.20654 1.47769,0.58045 c 1.38341,0.54342 1.59018,0.54051 3.24044,-0.0456 1.75169,-0.62214 1.76612,-0.62124 2.30276,0.14493 0.80193,1.14492 2.6131,1.75599 5.20459,1.75599 2.64852,0 2.75988,0.18349 1.56269,2.57479 -1.5708,3.13755 -4.00424,4.91721 -7.34365,5.37069 l -1.90708,0.25898 z m 4.94321,-11.13345 c -0.41308,-0.45514 -1.19411,-1.54276 -1.73561,-2.41693 -1.27454,-2.05755 -1.81935,-2.44755 -3.4382,-2.46118 -1.4372,-0.0121 -1.85266,0.54668 -2.27224,3.05619 l -0.18807,1.12482 -1.41878,-0.93891 -1.41878,-0.9389 -1.17646,1.36096 -1.17647,1.36098 -1.94138,-1.77431 c -3.04337,-2.78148 -5.99662,-3.4778 -10.0901,-2.37906 -2.94019,0.78918 -3.40658,0.71552 -3.66545,-0.57889 l -0.22174,-1.10868 -1.85333,0.22497 c -1.01933,0.12374 -3.20432,0.30572 -4.85554,0.4044 l -3.00222,0.17943 2.82562,-1.39579 c 1.55409,-0.76768 4.01767,-1.82609 5.47463,-2.35201 1.45696,-0.52592 2.7114,-1.00751 2.78765,-1.07021 0.41696,-0.34285 -1.08921,-1.29635 -4.12997,-2.61453 -1.88425,-0.81683 -3.65864,-1.70479 -3.9431,-1.97325 -0.44386,-0.41891 -0.24356,-0.48856 1.41281,-0.49131 3.66059,-0.007 15.16727,-3.11733 17.0729,-4.61629 1.65029,-1.29813 1.26476,-2.21818 -1.63292,-3.89685 -3.3887,-1.96313 -12.12689,-7.78439 -13.68658,-9.1178 l -1.23621,-1.05686 1.96604,-0.0144 c 4.13285,-0.0301 9.57604,1.42883 16.30768,4.37115 8.07765,3.53065 12.73928,6.57855 17.55509,11.47801 2.85089,2.90041 2.99139,2.99425 3.21875,2.14979 0.21772,-0.80871 0.31967,-0.70907 1.21172,1.18443 0.73578,1.56179 1.06207,2.98714 1.3341,5.82783 0.41891,4.37432 0.085,6.15794 -1.4809,7.91049 -0.90718,1.01531 -1.22797,1.13283 -3.42638,1.25518 -2.186,0.12167 -2.49965,0.0533 -3.17656,-0.69252 z m -5.42997,-1.18072 c 0,-1.79675 0.56818,-2.08085 1.76601,-0.88301 0.71869,0.71869 0.98605,1.62732 0.36608,1.24417 -0.18717,-0.11568 -0.66399,0.11335 -1.0596,0.50896 -0.39561,0.39561 -0.79876,0.71929 -0.89589,0.71929 -0.0971,0 -0.1766,-0.71524 -0.1766,-1.58941 z m -22.42834,-21.94003 c -0.9713,-0.27948 -3.06783,-0.74581 -4.65895,-1.03629 -1.59111,-0.29049 -3.56246,-0.76439 -4.38076,-1.0531 -0.8183,-0.28871 -3.56947,-0.75549 -6.11371,-1.03729 -5.16565,-0.57213 -12.858,-0.28176 -17.34118,0.65458 -1.35982,0.284 -3.70103,0.68556 -5.20268,0.89235 l -2.73029,0.37597 -5.56997,-2.67512 c -10.28877,-4.94143 -17.33521,-7.51926 -26.05569,-9.53208 -7.564838,-1.74608 -7.202828,-1.56886 -10.255079,-5.02056 C 91.405013,129.626 80.202069,112.61178 77.584025,107.12304 69.233741,89.61667 58.452234,82.32987 29.268487,74.46841 14.403919,70.46421 10.646897,69.33055 8.0763692,68.07381 3.4013414,65.78818 3.1555127,65.03045 7.4442477,66.12546 c 3.9969123,1.0205 12.8005313,2.40522 19.0739973,3.00013 4.247168,0.40276 5.727769,0.4221 7.064043,0.0923 0.929849,-0.22951 1.645944,-0.57622 1.59132,-0.77049 -0.05464,-0.19426 -2.200317,-1.23195 -4.768229,-2.30597 -4.581783,-1.91632 -9.64785,-4.69142 -13.144628,-7.20038 -0.970688,-0.69647 -1.577335,-1.26631 -1.348118,-1.26631 0.229229,0 3.169129,0.96123 6.533114,2.13608 8.092292,2.82617 15.965212,5.19394 23.953044,7.20387 7.475899,1.88111 8.474424,2.17947 14.387326,4.2989 4.31751,1.54757 5.490053,1.84489 4.844531,1.22839 C 65.4461,72.36574 61.718935,70.58191 57.348058,68.57794 43.600591,62.27495 27.164274,51.648211 23.689339,46.81624 c -0.592773,-0.824252 -1.009926,-1.566474 -0.927012,-1.649377 0.08289,-0.08289 1.580701,0.953116 3.328444,2.302282 1.747744,1.349166 4.417124,3.079371 5.931964,3.844893 1.514829,0.765532 3.215586,1.720381 3.779451,2.121895 4.745227,3.378897 22.585026,9.821827 26.224322,9.471027 1.143105,-0.11015 1.1156,-0.14554 -5.031652,-6.46944 -5.888355,-6.057559 -10.596065,-11.70823 -10.596065,-12.718477 0,-0.257418 -0.556293,-1.628813 -1.236207,-3.04756 -1.32027,-2.754953 -1.66526,-4.26137 -0.633534,-2.766351 3.029127,4.389326 12.387991,14.234946 17.488076,18.397628 8.158241,6.65878 24.646711,16.04758 24.646711,14.03425 0,-0.59601 -1.626198,-3.41461 -6.235398,-10.8075 C 75.614647,51.808445 72.966238,46.628868 71.217788,41.515892 70.032949,38.05107 69.917893,37.37277 69.903026,33.76447 c -0.01943,-4.712091 0.562728,-6.032953 1.192598,-2.705971 1.345645,7.107667 3.25489,11.687132 7.70984,18.492576 8.86533,13.542775 26.372956,29.650555 41.977086,38.620755 2.82363,1.6232 5.43992,2.2181 5.43992,1.23697 0,-0.22403 -0.25639,-2.64413 -0.56977,-5.37801 -0.59983,-5.23272 -0.56016,-12.97003 0.0722,-14.08501 0.26618,-0.46934 0.3727,-0.0626 0.43656,1.66707 0.23168,6.27499 4.34566,15.7079 9.18718,21.06519 1.38368,1.53108 2.58012,2.42047 4.49531,3.34163 2.83898,1.36551 2.72933,1.19776 3.67928,5.62872 1.27147,5.9307 3.15133,11.7946 5.37844,16.7771 4.00529,8.96066 7.67792,14.22435 14.88892,21.33912 5.01698,4.95002 7.2097,6.73532 13.20469,10.75117 1.79691,1.2037 3.26712,2.2639 3.26712,2.35602 0,0.25989 -0.72813,0.1489 -2.64902,-0.4038 z m 21.65327,-6.81208 c -3.12934,-2.12929 -4.16508,-2.59617 -11.18505,-5.04194 -5.49332,-1.91387 -9.1345,-2.64018 -15.76625,-3.14488 -6.44839,-0.49076 -6.76862,-0.61439 -9.27669,-3.58157 -1.77699,-2.1023 -4.8014,-6.95157 -5.21296,-8.35838 -0.22891,-0.78244 -0.17372,-0.82588 0.76382,-0.60134 0.55581,0.13313 3.09789,0.33408 5.64907,0.44655 5.73202,0.25273 8.70964,-0.3235 13.1319,-2.54128 4.87685,-2.44576 7.13033,-5.32168 7.13033,-9.09983 0,-2.50099 -0.57824,-3.69608 -2.58336,-5.33913 -2.25467,-1.84753 -4.6188,-2.77313 -7.5712,-2.96424 -4.4133,-0.28569 -2.79386,-0.65345 2.64902,-0.60157 5.55214,0.0529 5.08844,-0.0365 14.56959,2.81186 2.50798,0.75348 5.53811,1.40711 7.01509,1.51322 l 2.60005,0.1868 -0.26068,-0.84368 c -1.22802,-3.97423 -5.87968,-7.4514 -15.56786,-11.63715 -5.24269,-2.26509 -5.25873,-2.27552 -3.67626,-2.39185 2.47343,-0.18181 8.03446,0.61654 10.87627,1.56143 3.84601,1.27876 6.34669,2.65408 12.8755,7.08119 6.146,4.16752 7.32218,4.64106 8.06769,3.24806 0.64657,-1.20813 0.21726,-7.46761 -0.68475,-9.98387 -1.63191,-4.55242 -5.26474,-9.08077 -10.07828,-12.56264 -1.73305,-1.25361 -2.48407,-1.98589 -2.11745,-2.06461 0.7678,-0.16487 5.19107,2.06017 7.39651,3.72067 2.34049,1.76218 11.04774,9.33496 15.32328,13.32681 6.42536,5.99902 8.49207,6.55322 9.59536,2.57305 0.53611,-1.93402 -0.0362,-6.71095 -1.29924,-10.84507 -1.22271,-4.00203 -4.69353,-11.06129 -6.49316,-13.20642 -0.79703,-0.95004 -1.38537,-1.79112 -1.30742,-1.86907 0.0779,-0.0779 1.0932,0.41592 2.25612,1.09748 6.69827,3.92575 12.6417,14.82025 14.2848,26.18448 0.42524,2.94111 0.44458,2.98122 1.43743,2.98122 3.76566,0 7.60468,-6.04452 7.72394,-12.16128 0.023,-1.17888 0.15614,-2.62023 0.29591,-3.20302 l 0.2541,-1.0596 0.32033,1.0596 c 0.17619,0.58279 0.31434,3.92055 0.30703,7.41725 -0.0124,5.89619 -0.0829,6.58293 -0.97182,9.46169 -1.19142,3.85836 -3.05946,7.61388 -4.67881,9.40631 -2.09855,2.32285 -4.51075,3.96232 -17.46982,11.87358 -6.89476,4.20911 -13.56904,8.38827 -14.83173,9.28705 -3.12222,2.22238 -7.63384,6.58835 -8.71559,8.43422 -0.4884,0.83339 -1.07295,1.51524 -1.29901,1.51524 -0.22605,0 -1.79015,-0.9384 -3.47575,-2.08534 z"
     id="path4487"
     inkscape:connector-curvature="0" />
</svg>
