<?xml version="1.0" encoding="UTF-8" standalone="no"?>
<!-- Created with Inkscape (http://www.inkscape.org/) -->

<svg
   xmlns:dc="http://purl.org/dc/elements/1.1/"
   xmlns:cc="http://creativecommons.org/ns#"
   xmlns:rdf="http://www.w3.org/1999/02/22-rdf-syntax-ns#"
   xmlns:svg="http://www.w3.org/2000/svg"
   xmlns="http://www.w3.org/2000/svg"
   xmlns:sodipodi="http://sodipodi.sourceforge.net/DTD/sodipodi-0.dtd"
   xmlns:inkscape="http://www.inkscape.org/namespaces/inkscape"
   width="256"
   height="256"
   viewBox="0 0 67.733332 67.733335"
   version="1.1"
   id="svg8"
   inkscape:version="0.92.2 5c3e80d, 2017-08-06"
   sodipodi:docname="uyg_ayarlar.svg">
  <defs
     id="defs2" />
  <sodipodi:namedview
     id="base"
     pagecolor="#ffffff"
     bordercolor="#666666"
     borderopacity="1.0"
     inkscape:pageopacity="0.0"
     inkscape:pageshadow="2"
     inkscape:zoom="0.9899495"
     inkscape:cx="557.28598"
     inkscape:cy="43.03536"
     inkscape:document-units="mm"
     inkscape:current-layer="layer1"
     showgrid="false"
     units="px"
     inkscape:window-width="1366"
     inkscape:window-height="715"
     inkscape:window-x="0"
     inkscape:window-y="24"
     inkscape:window-maximized="1" />
  <metadata
     id="metadata5">
    <rdf:RDF>
      <cc:Work
         rdf:about="">
        <dc:format>image/svg+xml</dc:format>
        <dc:type
           rdf:resource="http://purl.org/dc/dcmitype/StillImage" />
        <dc:title />
      </cc:Work>
    </rdf:RDF>
  </metadata>
  <g
     inkscape:label="Layer 1"
     inkscape:groupmode="layer"
     id="layer1"
     transform="translate(0,-229.26665)">
    <path
       inkscape:connector-curvature="0"
       id="path2986"
       d="m 30.298016,291.76523 c -0.501098,-0.22367 -1.034087,-0.79603 -1.27192,-1.36588 -0.122575,-0.29368 -0.2449,-1.4226 -0.349632,-3.22668 -0.0886,-1.52622 -0.205271,-2.89666 -0.259271,-3.04541 -0.07162,-0.1973 -0.421758,-0.38345 -1.294571,-0.68824 -0.658019,-0.22978 -1.648948,-0.64531 -2.202057,-0.92341 -0.553113,-0.2781 -1.126157,-0.50564 -1.273438,-0.50564 -0.165192,0 -1.068736,0.73476 -2.358345,1.91778 -1.14981,1.05478 -2.276438,2.0131 -2.50362,2.12961 -0.467635,0.23982 -1.519767,0.27886 -2.063086,0.0765 -0.432004,-0.16087 -5.002017,-4.66438 -5.295031,-5.21798 -0.290622,-0.54908 -0.259542,-1.57618 0.06653,-2.19843 0.148429,-0.28325 1.115052,-1.43119 2.14805,-2.55097 1.111981,-1.20541 1.878179,-2.14116 1.878179,-2.29381 0,-0.14181 -0.227537,-0.71038 -0.505633,-1.2635 -0.278099,-0.55311 -0.692738,-1.54146 -0.92142,-2.19634 -0.228682,-0.65488 -0.509349,-1.23919 -0.623706,-1.29847 -0.114356,-0.0593 -1.456647,-0.17661 -2.982869,-0.26074 -1.7749925,-0.0978 -2.9696555,-0.22269 -3.3152775,-0.34644 -0.658652,-0.23583 -1.417479,-1.04344 -1.524689,-1.62269 -0.04348,-0.23495 -0.06128,-1.97555 -0.03956,-3.86801 l 0.0395,-3.44085 0.395494,-0.49571 c 0.698917,-0.87602 1.027451,-0.96402 4.3657075,-1.16935 1.889453,-0.11622 3.038052,-0.23927 3.13346,-0.33572 0.08284,-0.0837 0.365977,-0.73305 0.629192,-1.44292 0.263215,-0.70987 0.674599,-1.68127 0.914187,-2.15866 0.239587,-0.47738 0.435614,-0.9729 0.435614,-1.10115 0,-0.12824 -0.790299,-1.10004 -1.756222,-2.15955 -0.965923,-1.05951 -1.889854,-2.10312 -2.053181,-2.31914 -0.459369,-0.60754 -0.61471,-1.35987 -0.432968,-2.09691 0.137227,-0.5565 0.38859,-0.85819 2.487912,-2.98598 1.284394,-1.30181 2.550748,-2.47793 2.814121,-2.61361 0.611179,-0.31485 1.582991,-0.31921 2.189833,-0.01 0.255527,0.13028 1.376574,1.07408 2.491209,2.09734 1.11464,1.02327 2.102143,1.90338 2.194453,1.9558 0.09727,0.0552 0.697695,-0.1557 1.428294,-0.50179 0.693251,-0.32839 1.73054,-0.75551 2.305071,-0.94915 0.779015,-0.26255 1.081281,-0.43031 1.188836,-0.65982 0.07932,-0.16927 0.215366,-1.55649 0.302311,-3.08271 0.167217,-2.9352 0.267689,-3.39918 0.872941,-4.03107 0.67325,-0.70289 1.060441,-0.76055 4.823545,-0.71834 l 3.42752,0.0385 0.53621,0.35508 c 0.92255,0.61091 1.03422,0.99073 1.25149,4.25657 0.10517,1.58084 0.21993,2.99738 0.25503,3.14786 0.0494,0.21179 0.33191,0.36723 1.25034,0.68794 0.65258,0.22789 1.69766,0.67104 2.32238,0.9848 0.62473,0.31376 1.18593,0.57047 1.24711,0.57047 0.0612,0 1.06422,-0.87473 2.22899,-1.94384 1.16477,-1.06911 2.33324,-2.05647 2.59661,-2.19414 0.62258,-0.32544 1.54926,-0.32247 2.23013,0.007 0.32328,0.15649 1.42154,1.15602 2.80087,2.54908 2.3677,2.39125 2.5543,2.66484 2.55614,3.74779 0.002,0.76595 -0.33969,1.2684 -2.37523,3.5 -1.10679,1.21339 -2.01234,2.25762 -2.01234,2.3205 0,0.0629 0.28888,0.71649 0.64195,1.45246 0.35308,0.73598 0.77417,1.7667 0.93574,2.29049 0.20074,0.6507 0.37554,0.98707 0.55192,1.06199 0.14197,0.0603 1.56899,0.19151 3.17116,0.29157 3.17953,0.19857 3.69168,0.3294 4.22477,1.07919 0.50395,0.7088 0.56256,1.24002 0.51892,4.70311 l -0.0417,3.31272 -0.38899,0.55311 c -0.69459,0.98766 -0.87001,1.03826 -4.39738,1.26844 -1.72355,0.11247 -3.16395,0.23472 -3.2009,0.27167 -0.0369,0.037 -0.25092,0.58782 -0.47549,1.22416 -0.22457,0.63634 -0.66617,1.67047 -0.98133,2.29807 -0.31517,0.6276 -0.55527,1.21852 -0.53356,1.31314 0.0217,0.0946 0.88163,1.09018 1.91094,2.21236 1.02931,1.12217 2.00216,2.29804 2.16188,2.61302 0.33926,0.66907 0.37073,1.37753 0.0909,2.04719 -0.24692,0.59097 -4.43817,4.85119 -5.11941,5.20365 -0.56962,0.29471 -1.60722,0.32638 -2.20344,0.0673 -0.22843,-0.0993 -1.37365,-1.05734 -2.54493,-2.12902 -1.17129,-1.07168 -2.22277,-1.94878 -2.33663,-1.9491 -0.11386,-4.1e-4 -0.77365,0.26419 -1.4662,0.58783 -0.69255,0.32362 -1.71875,0.73983 -2.28044,0.92489 -0.77636,0.25577 -1.0363,0.40097 -1.08392,0.60545 -0.0345,0.14794 -0.14871,1.56239 -0.25387,3.14323 -0.23132,3.47699 -0.36422,3.85392 -1.57498,4.46703 -0.35109,0.17778 -0.93206,0.2084 -3.87202,0.20411 -2.601979,-0.004 -3.554895,-0.0479 -3.846165,-0.17788 z m 5.098153,-15.43813 c 3.12028,-0.32702 5.72724,-1.57145 7.94671,-3.79336 1.69161,-1.69348 2.78313,-3.59365 3.44036,-5.98921 0.41203,-1.50179 0.4096,-4.81798 -0.005,-6.3381 -1.25711,-4.61314 -4.55943,-8.00963 -9.12374,-9.38394 -1.06353,-0.32022 -1.35232,-0.35059 -3.42029,-0.35962 -1.980745,-0.009 -2.393676,0.027 -3.355751,0.28963 -4.803701,1.31138 -8.477631,5.17124 -9.481539,9.96136 -0.901949,4.30365 0.416852,8.69635 3.558856,11.85394 1.645128,1.65328 3.779694,2.86636 6.092242,3.46223 0.659437,0.16992 1.595235,0.30088 2.928062,0.40976 0.10647,0.009 0.74536,-0.042 1.41974,-0.11269 z m -3.200642,-5.41109 c -3.29106,-0.89256 -5.5943,-3.69343 -5.798231,-7.05097 -0.142587,-2.34756 0.612877,-4.33377 2.27994,-5.99424 3.035977,-3.02399 7.883823,-3.05233 10.881333,-0.0636 2.46892,2.46167 3.06132,5.96276 1.52891,9.03593 -1.30521,2.61754 -3.7097,4.16223 -6.65886,4.27778 -1.00401,0.0393 -1.50059,-0.006 -2.233092,-0.20488 z m 3.681952,-3.25466 c 0.90899,-0.3401 1.99323,-1.34788 2.44923,-2.27652 0.32179,-0.65531 0.36063,-0.87344 0.36066,-2.02509 2e-5,-1.2251 -0.0224,-1.33211 -0.44231,-2.1065 -0.84753,-1.56316 -2.10506,-2.35525 -3.88142,-2.44483 -1.42698,-0.072 -2.281089,0.2303 -3.311228,1.17179 -1.306092,1.1937 -1.825774,2.85316 -1.406288,4.49059 0.363093,1.41728 1.132335,2.37962 2.426261,3.0353 1.207105,0.61169 2.449665,0.66239 3.805095,0.15526 z"
       style="fill:#394050;fill-opacity:1;stroke-width:0.1165101" />
  </g>
</svg>
