<?xml version="1.0" encoding="UTF-8" standalone="no"?>
<!-- Created with Inkscape (http://www.inkscape.org/) -->

<svg
   xmlns:dc="http://purl.org/dc/elements/1.1/"
   xmlns:cc="http://creativecommons.org/ns#"
   xmlns:rdf="http://www.w3.org/1999/02/22-rdf-syntax-ns#"
   xmlns:svg="http://www.w3.org/2000/svg"
   xmlns="http://www.w3.org/2000/svg"
   xmlns:sodipodi="http://sodipodi.sourceforge.net/DTD/sodipodi-0.dtd"
   xmlns:inkscape="http://www.inkscape.org/namespaces/inkscape"
   width="256"
   height="256"
   viewBox="0 0 67.733332 67.733335"
   version="1.1"
   id="svg8"
   inkscape:version="0.92.2 5c3e80d, 2017-08-06"
   sodipodi:docname="uyg_grafik.svg">
  <defs
     id="defs2" />
  <sodipodi:namedview
     id="base"
     pagecolor="#ffffff"
     bordercolor="#666666"
     borderopacity="1.0"
     inkscape:pageopacity="0.0"
     inkscape:pageshadow="2"
     inkscape:zoom="0.49497475"
     inkscape:cx="973.20776"
     inkscape:cy="268.67213"
     inkscape:document-units="mm"
     inkscape:current-layer="layer1"
     showgrid="false"
     units="px"
     inkscape:window-width="1366"
     inkscape:window-height="715"
     inkscape:window-x="0"
     inkscape:window-y="24"
     inkscape:window-maximized="1"
     showguides="false" />
  <metadata
     id="metadata5">
    <rdf:RDF>
      <cc:Work
         rdf:about="">
        <dc:format>image/svg+xml</dc:format>
        <dc:type
           rdf:resource="http://purl.org/dc/dcmitype/StillImage" />
        <dc:title />
      </cc:Work>
    </rdf:RDF>
  </metadata>
  <g
     inkscape:label="Layer 1"
     inkscape:groupmode="layer"
     id="layer1"
     transform="translate(0,-229.26665)">
    <g
       id="g66"
       transform="matrix(0.48000002,0,0,0.48000002,-38.910192,127.0332)">
      <path
         style="fill:#394050;fill-opacity:1;stroke-width:0.26458332"
         inkscape:connector-curvature="0"
         d="m 191.53235,320.55675 c -0.20121,-4.76487 -7.36399,-18.93327 -7.19492,-24.43156 0.19288,-6.2341 3.96358,-13.91242 11.81454,1.09775 4.70415,8.99515 11.92527,3.39803 12.80157,-0.97869 2.64675,-13.23971 -1.28349,-29.12023 -13.8005,-44.68046 -21.65027,-26.90926 -59.70493,-34.29944 -84.97587,-16.50441 -25.269764,17.79742 -25.77816,57.87375 -2.71819,81.1004 20.90136,21.04544 49.72632,30.29538 73.82689,20.15247 2.49197,-1.0537 10.73821,-4.28148 10.24648,-15.7555 z m -67.69637,-78.02622 c 4.56008,-3.21111 10.85847,-2.1193 14.07196,2.44316 3.21349,4.56127 2.11812,10.86085 -2.44197,14.07195 -4.56365,3.2135 -10.86085,2.11932 -14.07434,-2.44196 -3.21349,-4.56127 -2.1205,-10.85847 2.44435,-14.07315 z m -19.69051,41.04431 c -3.2111,-4.56127 -2.11573,-10.86086 2.44435,-14.07196 4.5577,-3.21111 10.86085,-2.12169 14.07196,2.43959 3.21349,4.56245 2.11574,10.86323 -2.44196,14.07434 -4.56009,3.2123 -10.86205,2.12407 -14.07435,-2.44197 z m 49.02386,-26.28774 c -3.21587,-4.56127 -2.1205,-10.86324 2.44197,-14.07435 4.56127,-3.2111 10.85847,-2.11811 14.07434,2.44435 3.21111,4.56008 2.11692,10.85848 -2.44435,14.07197 -4.56127,3.21229 -10.85966,2.1205 -14.07196,-2.44197 z m -34.1649,52.0659 c -3.2111,-4.56485 -2.1193,-10.86681 2.44078,-14.07792 4.56127,-3.2111 10.86323,-2.11811 14.07434,2.44197 3.21111,4.56247 2.11931,10.86443 -2.44196,14.07553 -4.56009,3.21348 -10.86086,2.11812 -14.07316,-2.43958 z"
         id="Palette_1_" />
      <path
         inkscape:connector-curvature="0"
         id="path4250"
         d="m 126.54734,261.05795 c -5.16592,-1.61686 -8.66964,-7.49177 -7.55834,-12.67355 0.55591,-2.59212 1.62004,-4.50468 3.46822,-6.23344 2.44595,-2.28789 4.22191,-2.9788 7.65701,-2.9788 3.44354,0 5.21085,0.69071 7.6822,3.00236 6.13941,5.7427 3.94095,16.06054 -4.02059,18.86952 -1.68937,0.59605 -5.34607,0.60309 -7.2285,0.0138 z"
         style="fill:#ffffff;fill-opacity:1;stroke:none;stroke-width:0.26458332" />
      <path
         inkscape:connector-curvature="0"
         id="path4250-8"
         d="m 158.05247,261.65818 c -4.96012,-1.55245 -8.32425,-7.1933 -7.25723,-12.16865 0.53376,-2.48884 1.5555,-4.32522 3.33005,-5.98511 2.3485,-2.19675 4.05372,-2.86012 7.35197,-2.86012 3.30635,0 5.00326,0.66318 7.37615,2.88274 5.89482,5.51392 3.78395,15.42071 -3.86042,18.1178 -1.62207,0.5723 -5.13309,0.57904 -6.94052,0.0134 z"
         style="fill:#ffffff;fill-opacity:1;stroke:none;stroke-width:0.26458332" />
      <path
         inkscape:connector-curvature="0"
         id="path4250-0"
         d="m 109.20314,288.04158 c -4.96011,-1.55245 -8.32424,-7.1933 -7.25722,-12.16865 0.53376,-2.48885 1.5555,-4.32522 3.33005,-5.98511 2.3485,-2.19674 4.05372,-2.86012 7.35197,-2.86012 3.30635,0 5.00326,0.66318 7.37615,2.88274 5.89482,5.51392 3.78395,15.42071 -3.86042,18.11779 -1.62207,0.57231 -5.13309,0.57906 -6.94053,0.0134 z"
         style="fill:#ffffff;fill-opacity:1;stroke:none;stroke-width:0.26458332" />
      <path
         inkscape:connector-curvature="0"
         id="path4250-5"
         d="m 123.96156,313.83209 c -4.96012,-1.55245 -8.32425,-7.1933 -7.25723,-12.16865 0.53376,-2.48884 1.55551,-4.32522 3.33006,-5.98511 2.3485,-2.19674 4.05371,-2.86012 7.35196,-2.86012 3.30636,0 5.00326,0.66318 7.37615,2.88275 5.89482,5.51391 3.78395,15.4207 -3.86041,18.11779 -1.62207,0.5723 -5.13309,0.57905 -6.94053,0.0134 z"
         style="fill:#ffffff;fill-opacity:1;stroke:none;stroke-width:0.26458332" />
      <path
         id="path3375"
         d="m 207.87124,229.88287 c -0.39267,6.1e-4 -0.65193,0.0563 -0.98724,0.21241 -1.10321,0.51353 -1.89849,1.23466 -4.51139,4.08956 -10.80787,11.8089 -18.45304,21.6132 -25.21648,32.33957 -4.44016,7.04178 -8.21737,13.74242 -14.62611,25.94645 -1.17056,2.22905 -2.19613,4.12777 -2.27962,4.2197 -0.0835,0.0919 -0.44949,0.69381 -0.81372,1.33726 -2.49228,4.40271 -4.7654,9.16873 -6.616,13.8722 -0.88163,2.24072 -0.72565,2.03936 -1.76207,2.26765 -3.02362,0.66605 -6.21891,2.44396 -8.29132,4.61311 -1.71703,1.79721 -2.52653,3.32928 -4.65798,8.81635 -1.27559,3.28384 -1.5346,3.88688 -2.15247,5.01996 -1.723,3.15969 -4.28948,5.5514 -8.89712,8.29131 -0.49145,0.29223 -0.91445,0.566 -0.94087,0.60881 -0.021,0.0339 0.10008,0.0959 0.29767,0.17051 0.10608,-0.0667 0.19907,-0.12881 0.32609,-0.20342 4.15445,-2.4403 7.083,-5.05901 8.7251,-7.80369 0.60434,-1.01012 1.38974,-2.78602 2.4666,-5.5779 2.03399,-5.27337 2.78807,-6.75342 4.35881,-8.56205 1.44477,-1.66359 3.77803,-3.28481 6.08797,-4.22868 0.9759,-0.39877 2.41496,-0.82431 3.03501,-0.89749 0.2443,-0.0288 0.47879,-0.0951 0.52055,-0.14659 0.0418,-0.0516 0.3578,-0.81443 0.70303,-1.69626 1.30732,-3.33921 2.66262,-6.37305 4.33937,-9.71533 0.97763,-1.94871 2.92831,-5.57247 3.09784,-5.7544 0.0697,-0.0748 9.21572,5.46538 9.21572,5.58238 0,0.10128 -1.69905,2.53489 -2.86598,4.10603 -0.98455,1.32556 -2.15786,2.81701 -3.39551,4.32889 0.47771,-0.5725 1.03023,-1.22335 1.36718,-1.64241 1.69986,-2.1141 4.86451,-6.48243 5.09775,-7.03633 0.0618,-0.14676 0.94544,-1.42467 1.964,-2.84055 3.54554,-4.9286 8.47173,-11.86936 10.42884,-14.69191 10.28435,-14.83216 16.57104,-26.12856 23.11187,-41.53137 1.43185,-3.37183 3.37018,-8.18202 3.68271,-9.13944 0.67368,-2.06369 0.68538,-3.39072 0.0344,-4.0417 -0.29789,-0.29789 -0.34241,-0.31339 -0.84663,-0.31263 z m -47.50417,68.29153 c -0.0579,0.0224 -0.36086,0.50246 -0.67311,1.06801 -0.43381,0.7857 -0.54791,1.06034 -0.48465,1.16375 0.10194,0.16661 6.90485,5.22249 7.03034,5.2249 0.0495,7.9e-4 0.16765,-0.0828 0.26177,-0.18699 0.35178,-0.38918 1.71438,-2.42231 1.68429,-2.51297 -0.002,-0.004 -0.11717,-0.0754 -0.12864,-0.0853 -0.0273,0.12098 -0.2283,0.40635 -0.98126,1.47039 -0.36589,0.51706 -0.70752,0.93807 -0.75837,0.93638 -0.11631,-0.004 -6.74949,-4.88425 -6.85534,-5.04389 -0.0554,-0.0835 0.0613,-0.36669 0.40388,-0.98126 0.26518,-0.47563 0.53061,-0.91569 0.58935,-0.97676 0.006,-0.007 0.0243,-0.005 0.0374,-0.006 -0.012,-0.005 -0.12271,-0.0714 -0.12565,-0.0703 z m -1.47039,2.76278 c -0.1693,0.0371 -0.39408,0.46943 -1.55714,2.81662 -0.67604,1.36432 -1.12191,2.35989 -1.10541,2.46959 0.0281,0.18676 0.55439,0.45033 5.55547,2.78073 l 1.42103,0.66265 0.19894,-0.18699 c 0.10905,-0.10277 0.68398,-0.82079 1.27892,-1.59603 1.29669,-1.6897 1.3264,-1.71628 1.12934,-1.89669 -0.0415,0.13281 -0.63908,0.93792 -1.74561,2.34094 -0.40779,0.51706 -0.76768,0.93757 -0.79877,0.93489 -0.11697,-0.01 -6.69684,-3.13299 -6.78204,-3.21899 -0.0633,-0.0639 0.27694,-0.82312 1.17272,-2.61917 0.89519,-1.79486 1.21082,-2.36758 1.34923,-2.45315 -0.003,-0.001 -0.0432,-0.031 -0.0449,-0.0314 -0.0244,-0.007 -0.0476,-0.008 -0.0718,-0.003 z m -2.91235,5.87556 c -0.16971,-0.002 -1.55099,3.10608 -1.50778,3.39253 0.03,0.19866 4.9797,3.67513 5.19647,3.64979 0.0789,-0.009 0.82444,-0.82899 1.65736,-1.82191 0.83291,-0.99293 1.50318,-1.86299 1.48983,-1.93259 -7.9e-4,-0.005 -0.14975,-0.0779 -0.17201,-0.0927 -0.10084,0.17477 -0.63032,0.84566 -1.35521,1.70374 -0.80545,0.95342 -1.50976,1.73112 -1.56612,1.72766 -0.13643,-0.008 -4.97303,-3.35114 -5.02296,-3.47179 -0.0491,-0.11865 1.18105,-2.90113 1.37167,-3.11577 -0.009,-0.003 -0.0866,-0.0389 -0.0912,-0.0389 z m -1.69177,4.08508 c -0.19354,-0.005 -0.25528,0.11057 -0.85262,1.59305 -0.35434,0.87942 -0.64742,1.71474 -0.65068,1.85631 -0.008,0.31786 0.46126,1.123 0.94237,1.61997 0.76985,0.79526 2.16771,1.22761 3.17861,0.98125 0.1037,-0.0252 0.66093,-0.57882 1.23704,-1.22956 1.15948,-1.30967 1.18577,-1.34642 1.10391,-1.47189 -0.006,-0.009 -0.11151,-0.082 -0.13163,-0.10021 -0.0879,0.16846 -0.34944,0.48455 -0.95134,1.15626 -0.59896,0.66845 -1.14983,1.23867 -1.22357,1.26696 -0.0737,0.0283 -0.27118,0.0473 -0.43977,0.0419 -1.43543,-0.046 -2.60715,-0.75807 -3.25789,-1.97897 l -0.27224,-0.51157 0.49512,-1.27743 c 0.50638,-1.30663 0.69877,-1.7724 0.82568,-1.94456 -1.7e-4,-1e-5 -0.003,-0.001 -0.003,-0.001 z m 7.9398,1.1817 c -0.13215,0.1587 -0.2649,0.31578 -0.39789,0.47417 0.14999,-0.17641 0.24926,-0.29834 0.39789,-0.47417 z m -4.24962,4.96013 c -0.14932,0.19681 -0.23564,0.33024 -0.22287,0.36797 0.0247,0.0729 0.13918,0.39848 0.25279,0.72247 0.4002,1.14129 0.50861,1.90097 0.50708,3.53463 -0.002,1.89279 -0.17267,2.88101 -0.80923,4.66993 -0.0904,0.25402 -0.20375,0.51037 -0.31562,0.76737 0.25373,-0.53709 0.47298,-1.06086 0.63422,-1.55416 0.50979,-1.55962 0.67024,-2.57915 0.66564,-4.24663 -0.005,-1.58594 -0.1416,-2.46956 -0.56393,-3.63035 -0.10355,-0.28465 -0.15782,-0.53485 -0.14808,-0.63123 z"
         style="fill:#394050;fill-opacity:1;stroke-width:0.26458332"
         inkscape:connector-curvature="0" />
      <path
         style="fill:#ffffff;stroke-width:0.26458332"
         d="m 131.45243,342.84133 c -1.57418,-0.17185 -3.24953,-0.50962 -4.81609,-0.97097 -0.31226,-0.092 -0.56775,-0.19523 -0.56775,-0.22949 0,-0.0342 0.35012,-0.2675 0.77803,-0.51837 4.16995,-2.44451 7.10907,-5.0683 8.75729,-7.81771 0.6066,-1.01187 1.39512,-2.79156 2.47599,-5.58825 2.04158,-5.28248 2.79776,-6.76513 4.37436,-8.57689 1.45016,-1.66646 3.79267,-3.28996 6.11123,-4.23546 0.93624,-0.3818 2.37611,-0.81286 2.98612,-0.89395 0.49467,-0.0658 0.48117,-0.0431 1.35524,-2.26851 1.54524,-3.93408 3.52076,-8.20785 5.43592,-11.75982 1.38211,-2.56335 1.93491,-3.50129 2.04743,-3.4739 0.0785,0.0191 7.53117,4.54052 9.01875,5.47154 0.38173,0.23891 0.44145,0.095 -0.75243,1.81301 -2.4896,3.58251 -5.78194,7.70758 -9.19204,11.51698 -0.719,0.80318 -1.33951,1.51797 -1.3789,1.58846 -0.0455,0.0814 0.006,0.36366 0.14077,0.77362 0.41716,1.26761 0.51722,1.96534 0.5157,3.59598 -0.002,1.89606 -0.17387,2.88663 -0.81281,4.67864 -0.50578,1.41849 -1.27622,2.76065 -3.09705,5.39519 -1.20655,1.74574 -3.79183,4.47245 -5.70661,6.0188 -2.7336,2.2076 -5.82533,3.85915 -8.86702,4.73659 -2.72499,0.78609 -5.93737,1.05768 -8.80613,0.74451 z m 25.60635,-26.38856 c 0.0742,-0.0286 0.62821,-0.60362 1.2311,-1.27795 0.88931,-0.99469 1.07546,-1.24577 0.98642,-1.33057 -0.21879,-0.20834 -4.57152,-3.18205 -4.71376,-3.22032 -0.16875,-0.0454 -0.24159,0.10515 -1.00135,2.06995 l -0.49859,1.28934 0.27454,0.51625 c 0.65501,1.23166 1.83332,1.94885 3.27816,1.99528 0.16969,0.006 0.36926,-0.0134 0.44348,-0.042 z m 4.37702,-4.90024 c 0.81072,-0.96182 1.46145,-1.78691 1.44607,-1.83352 -0.0394,-0.1195 -6.54496,-3.17518 -6.66315,-3.12973 -0.12714,0.0489 -1.46649,3.07958 -1.41551,3.203 0.0502,0.1217 4.91802,3.4945 5.05534,3.50277 0.0567,0.004 0.76652,-0.78072 1.57725,-1.74252 z m 2.79634,-3.41462 c 1.15313,-1.46536 1.78951,-2.32173 1.78951,-2.40811 0,-0.0955 -6.62811,-5.00051 -6.82807,-5.05297 -0.11189,-0.0294 -0.40474,0.49255 -1.41111,2.51482 -0.90166,1.81188 -1.24389,2.5782 -1.18021,2.64264 0.0858,0.0868 6.709,3.23712 6.82673,3.24716 0.0313,0.003 0.39269,-0.42193 0.80315,-0.94354 z m 3.02369,-4.04638 c 1.1451,-1.62184 1.07266,-1.49715 0.94255,-1.62217 -0.0638,-0.0613 -1.77705,-1.12323 -3.80726,-2.35985 -3.04383,-1.85403 -3.71012,-2.22876 -3.79872,-2.13638 -0.0591,0.0616 -0.32583,0.50462 -0.59275,0.98445 -0.34487,0.61998 -0.4626,0.90671 -0.40685,0.99096 0.10653,0.16104 6.78332,5.08444 6.9004,5.0883 0.0512,0.002 0.39434,-0.42371 0.76263,-0.94531 z"
         id="path3373"
         inkscape:connector-curvature="0" />
      <path
         sodipodi:nodetypes="ssssssssscsssccsss"
         style="fill:#394050;fill-opacity:1;stroke-width:0.26458332"
         d="m 131.68632,342.92059 c -0.98953,-0.10028 -2.25565,-0.29858 -3.20256,-0.50159 -0.96262,-0.20638 -2.57048,-0.66893 -2.57048,-0.73947 0,-0.0296 0.39476,-0.37549 0.86385,-0.65919 4.0167,-2.42929 6.9391,-4.76277 8.57668,-7.41508 0.61153,-0.99045 1.30475,-2.43719 1.94094,-4.05068 2.15456,-5.46445 2.85171,-7.10292 3.0222,-7.10292 0.0798,0 0.23207,0.45412 0.75711,2.25823 0.46913,1.61199 1.03008,2.7166 1.6389,3.22721 0.49916,0.41865 1.12261,0.64214 1.77879,0.63765 0.82476,-0.005 1.53216,-0.2 3.29266,-0.90463 1.8125,-0.72543 2.34981,-0.87315 3.17611,-0.87315 0.83591,0 1.31706,0.23848 2.03718,1.00967 0.79841,0.85505 1.43571,2.18122 1.61367,3.3579 0.0492,0.32526 0.0278,0.43065 -0.13473,0.66275 -0.48803,0.88758 -1.87917,2.35928 -3.01463,3.50667 -4.2442,4.28881 -8.99457,6.62653 -14.29763,7.43399 -1.2655,0.19268 -4.25968,0.27612 -5.47806,0.15264 z"
         id="path3367"
         inkscape:connector-curvature="0" />
      <path
         transform="matrix(0.26458333,0,0,0.26458333,0,229.26665)"
         id="path46"
         d="m 722.65039,67.246094 c -20.30103,24.924257 -37.3314,48.587756 -53.08398,73.570316 -16.78171,26.6146 -31.05729,51.94093 -55.2793,98.0664 -4.42416,8.42476 -8.30164,15.59982 -8.61719,15.94727 -0.31559,0.34734 -1.6976,2.62275 -3.07422,5.05469 -9.41964,16.64016 -18.01146,34.65279 -25.00586,52.42968 -3.33214,8.46887 -2.74297,7.70944 -6.66015,8.57227 -11.42786,2.51735 -23.50321,9.23523 -31.33594,17.43359 -6.48956,6.79261 -9.54959,12.58374 -17.60547,33.32227 -4.82113,12.41136 -5.79951,14.69015 -8.13476,18.97265 -1.60705,2.94705 -3.41125,5.71614 -5.47461,8.37305 0.17646,0.0758 0.35275,0.15312 0.52929,0.22852 1.1337,-1.51701 2.17518,-3.04343 3.09571,-4.58203 2.28412,-3.81778 5.25224,-10.53005 9.32226,-21.08204 7.68752,-19.93084 10.53796,-25.5236 16.47461,-32.35937 5.46055,-6.28758 14.27928,-12.41504 23.00977,-15.98242 3.68844,-1.50716 9.1272,-3.11599 11.4707,-3.39258 0.92334,-0.10885 1.80896,-0.36008 1.9668,-0.55469 0.15798,-0.19502 1.35339,-3.07725 2.6582,-6.41015 4.94105,-12.62064 10.06307,-24.08652 16.40039,-36.71875 3.69498,-7.36521 11.06824,-21.06239 11.70898,-21.75 0.26344,-0.28271 34.83008,20.6574 34.83008,21.09961 0,0.38279 -6.42158,9.57941 -10.83203,15.51757 -3.72113,5.00999 -8.15625,10.64714 -12.83398,16.36133 1.80552,-2.16378 3.89445,-4.62318 5.16797,-6.20703 6.42466,-7.9903 18.38604,-24.50027 19.26757,-26.59375 0.23358,-0.55468 3.5722,-5.38497 7.42188,-10.73633 13.40047,-18.62778 32.01906,-44.85944 39.41601,-55.52734 26.92553,-38.83218 46.59842,-71.25907 64.36524,-106.86719 -4.3763,-6.391168 -9.10264,-12.781231 -14.23242,-19.158202 -4.77212,-5.931294 -9.76357,-11.602117 -14.93555,-17.027344 z M 606.11133,260.43945 c -0.21884,0.0847 -1.36281,1.89765 -2.54297,4.03516 -1.6396,2.96957 -2.07112,4.0076 -1.83203,4.39844 0.38528,0.6297 26.09602,19.73894 26.57031,19.74804 0.18709,0.003 0.63451,-0.31324 0.99024,-0.70703 1.32956,-1.47091 6.47896,-9.15539 6.36523,-9.49804 -0.008,-0.0151 -0.44298,-0.28485 -0.48633,-0.32227 -0.10318,0.45725 -0.86315,1.53703 -3.70898,5.55859 -1.38289,1.95425 -2.67305,3.54545 -2.86524,3.53907 -0.43959,-0.0151 -25.51009,-18.46109 -25.91015,-19.06446 -0.20939,-0.31559 0.23255,-1.3862 1.52734,-3.70898 1.00226,-1.79766 2.00455,-3.46059 2.22656,-3.69141 0.0227,-0.0265 0.0911,-0.0177 0.14063,-0.0215 -0.0454,-0.0189 -0.4635,-0.26978 -0.47461,-0.26563 z m -5.55664,10.44141 c -0.63988,0.14022 -1.48895,1.77326 -5.88477,10.64453 -2.55511,5.15649 -4.24205,8.91937 -4.17969,9.33399 0.10621,0.70586 2.09633,1.70195 20.99805,10.50976 l 5.3711,2.50586 0.75195,-0.70703 c 0.41216,-0.38842 2.58539,-3.10316 4.83398,-6.0332 4.90088,-6.38627 5.01237,-6.48611 4.26758,-7.16797 -0.15685,0.50196 -2.41549,3.5449 -6.59766,8.84765 -1.54125,1.95425 -2.90202,3.54334 -3.01953,3.53321 -0.44209,-0.0378 -25.31079,-11.84098 -25.63281,-12.16602 -0.23924,-0.24151 1.04797,-3.11022 4.43359,-9.89844 3.3834,-6.78372 4.57649,-8.94807 5.09961,-9.27148 -0.0113,-0.004 -0.16349,-0.11763 -0.16992,-0.11914 -0.0922,-0.0265 -0.18002,-0.0306 -0.27148,-0.0117 z m -11.00781,22.20703 c -0.64143,-0.008 -5.86254,11.73962 -5.69922,12.82227 0.11338,0.75084 18.82133,13.89069 19.64062,13.79492 0.29821,-0.034 3.11563,-3.13395 6.26367,-6.88672 3.14801,-3.75281 5.68132,-7.04163 5.63086,-7.30469 -0.003,-0.0189 -0.56626,-0.29367 -0.65039,-0.34961 -0.38113,0.66055 -2.38135,3.19632 -5.12109,6.43946 -3.04422,3.60347 -5.70691,6.54237 -5.91992,6.52929 -0.51564,-0.0302 -18.79567,-12.66509 -18.98438,-13.12109 -0.18557,-0.44844 4.46509,-10.96611 5.18555,-11.77734 -0.034,-0.0113 -0.32832,-0.14649 -0.3457,-0.14649 z m -6.39454,15.43945 c -0.73149,-0.0189 -0.96499,0.41841 -3.22265,6.02149 -1.33924,3.32379 -2.44667,6.48056 -2.45899,7.01562 -0.0302,1.20136 1.74413,4.24474 3.5625,6.12305 2.90967,3.00571 8.19295,4.64011 12.01368,3.70898 0.39193,-0.0952 2.49835,-2.18894 4.67578,-4.64843 4.38228,-4.94994 4.48126,-5.08829 4.17187,-5.5625 -0.0227,-0.034 -0.422,-0.31008 -0.49805,-0.37891 -0.33222,0.6367 -1.3208,1.83039 -3.5957,4.36914 -2.26378,2.52643 -4.3463,4.68214 -4.625,4.78906 -0.27855,0.10696 -1.02492,0.17862 -1.66211,0.15821 -5.42525,-0.17386 -9.85301,-2.86409 -12.3125,-7.47852 l -1.02929,-1.93359 1.87109,-4.82813 c 1.91388,-4.93844 2.64143,-6.69892 3.12109,-7.34961 -6.4e-4,-3e-5 -0.0117,-0.004 -0.0117,-0.004 z m 30.00977,4.4668 c -0.49947,0.59981 -1.00127,1.19238 -1.50391,1.79102 0.56689,-0.66675 0.94216,-1.12647 1.50391,-1.79102 z m -16.0625,18.74609 c -0.56436,0.74385 -0.89006,1.24803 -0.8418,1.39063 0.0934,0.27553 0.52569,1.50594 0.95508,2.73047 1.51257,4.31354 1.9218,7.18491 1.91602,13.35937 -0.008,7.15386 -0.6527,10.88912 -3.0586,17.65039 -0.34167,0.96008 -0.76859,1.92906 -1.1914,2.90039 0.95898,-2.02994 1.78707,-4.0086 2.39648,-5.87304 1.92677,-5.89463 2.53301,-9.7485 2.51563,-16.05078 -0.0189,-5.99411 -0.53466,-9.33347 -2.13086,-13.72071 -0.39137,-1.07584 -0.59736,-2.02244 -0.56055,-2.38672 z"
         style="fill:#ffffff;fill-opacity:1;stroke-width:0.99999994"
         inkscape:connector-curvature="0" />
      <path
         id="path51"
         transform="matrix(0.26458333,0,0,0.26458333,0,229.26665)"
         d="m 530.33203,352.19531 c -0.64437,0 -3.27865,6.19267 -11.42187,26.84571 -2.4045,6.09823 -5.02465,11.56711 -7.33594,15.31054 -0.96545,1.56369 -2.06465,3.09448 -3.26367,4.60547 15.67251,6.7356 31.65707,11.95694 47.74023,15.5332 5.67613,-3.785 11.14557,-8.29146 16.4043,-13.60546 4.2915,-4.3366 9.55001,-9.89928 11.39453,-13.25391 0.61429,-0.87723 0.69376,-1.27653 0.50781,-2.50586 -0.6726,-4.44729 -3.08004,-9.45777 -6.09765,-12.68945 -2.72172,-2.91474 -4.54183,-3.81641 -7.70118,-3.81641 -3.12302,0 -5.15351,0.55705 -12.0039,3.29883 -6.65386,2.66317 -9.32616,3.40102 -12.44336,3.41992 -2.48005,0.017 -4.83802,-0.82786 -6.72461,-2.41016 -2.30105,-1.92986 -4.42027,-6.1047 -6.19336,-12.19726 -1.9844,-6.81868 -2.55972,-8.53516 -2.86133,-8.53516 z"
         style="fill:#ffffff;fill-opacity:1;stroke-width:0.99999994"
         inkscape:connector-curvature="0" />
    </g>
  </g>
</svg>
