<?xml version="1.0" encoding="UTF-8" standalone="no"?>
<!-- Created with Inkscape (http://www.inkscape.org/) -->

<svg
   xmlns:dc="http://purl.org/dc/elements/1.1/"
   xmlns:cc="http://creativecommons.org/ns#"
   xmlns:rdf="http://www.w3.org/1999/02/22-rdf-syntax-ns#"
   xmlns:svg="http://www.w3.org/2000/svg"
   xmlns="http://www.w3.org/2000/svg"
   xmlns:sodipodi="http://sodipodi.sourceforge.net/DTD/sodipodi-0.dtd"
   xmlns:inkscape="http://www.inkscape.org/namespaces/inkscape"
   width="256"
   height="256"
   viewBox="0 0 67.733332 67.733335"
   version="1.1"
   id="svg8"
   inkscape:version="0.92.2 5c3e80d, 2017-08-06"
   sodipodi:docname="uyg_gelistirme.svg">
  <defs
     id="defs2" />
  <sodipodi:namedview
     id="base"
     pagecolor="#ffffff"
     bordercolor="#666666"
     borderopacity="1.0"
     inkscape:pageopacity="0.0"
     inkscape:pageshadow="2"
     inkscape:zoom="0.49497475"
     inkscape:cx="771.57764"
     inkscape:cy="-67.176338"
     inkscape:document-units="mm"
     inkscape:current-layer="layer1"
     showgrid="false"
     units="px"
     inkscape:window-width="1366"
     inkscape:window-height="715"
     inkscape:window-x="0"
     inkscape:window-y="24"
     inkscape:window-maximized="1"
     showguides="false" />
  <metadata
     id="metadata5">
    <rdf:RDF>
      <cc:Work
         rdf:about="">
        <dc:format>image/svg+xml</dc:format>
        <dc:type
           rdf:resource="http://purl.org/dc/dcmitype/StillImage" />
        <dc:title />
      </cc:Work>
    </rdf:RDF>
  </metadata>
  <g
     inkscape:label="Layer 1"
     inkscape:groupmode="layer"
     id="layer1"
     transform="translate(0,-229.26665)">
    <g
       id="g64"
       transform="translate(-85.526248,-3.2072343)">
      <path
         d="m 144.90144,270.5412 c -0.0318,-0.15907 -0.0798,-0.34928 -0.11164,-0.55534 -0.44356,-1.31633 -1.5224,-5.25015 -1.5224,-6.69398 0,-11.15102 -10.43731,-20.22321 -23.33305,-20.22321 -12.86363,0 -23.348353,9.07219 -23.348353,20.22321 0,1.28532 -1.11054,5.10777 -1.903369,7.24932 h 50.218812"
         style="fill:#394050;fill-opacity:1;fill-rule:evenodd;stroke:none;stroke-width:0.127"
         id="path86"
         inkscape:connector-curvature="0" />
      <path
         d="m 119.56991,250.42825 c 3.34651,0 6.05911,-2.69675 6.05911,-6.0438 0,-3.31467 -2.7126,-6.01101 -6.05911,-6.01101 -3.2995,0 -6.01155,2.69634 -6.01155,6.01101 0,3.34705 2.71205,6.0438 6.01155,6.0438 v 0"
         style="fill:#394050;fill-opacity:1;fill-rule:evenodd;stroke:none;stroke-width:0.127"
         id="path88"
         inkscape:connector-curvature="0" />
      <path
         d="m 106.15054,246.97038 c 2.10984,-1.31702 4.50501,-2.34762 7.0427,-3.02963 0.15851,0.39669 0.25361,0.87223 0.25361,1.34817 v 16.21055 c 0,1.99889 -1.6492,3.63279 -3.63237,3.63279 -2.03004,0 -3.66394,-1.6339 -3.66394,-3.63279 v -14.52909"
         style="fill:#ffffff;fill-opacity:1;fill-rule:evenodd;stroke:none;stroke-width:0.127"
         id="path90"
         inkscape:connector-curvature="0" />
      <path
         d="m 126.05741,243.78224 c 2.52184,0.60221 4.86945,1.5541 6.93119,2.79131 v 14.92592 c 0,1.99889 -1.63335,3.63279 -3.61638,3.63279 -1.99834,0 -3.63238,-1.6339 -3.63238,-3.63279 v -16.21055 c 0,-0.5552 0.0793,-1.03128 0.31757,-1.50668 v 0"
         style="fill:#ffffff;fill-opacity:1;fill-rule:evenodd;stroke:none;stroke-width:0.127"
         id="path92"
         inkscape:connector-curvature="0" />
      <path
         d="m 148.35876,270.85808 c 0,1.6339 -0.90392,2.91853 -2.03004,2.91853 H 93.238802 c -1.141966,0 -2.03004,-1.28463 -2.03004,-2.91853 0,-1.5858 0.888074,-2.85512 2.03004,-2.85512 h 53.089918 c 1.12612,0 2.03004,1.26932 2.03004,2.85512 v 0"
         style="fill:#394050;fill-opacity:1;fill-rule:evenodd;stroke:none;stroke-width:0.127"
         id="path94"
         inkscape:connector-curvature="0" />
      <path
         sodipodi:nodetypes="ccccccc"
         d="m 130.69568,274.34228 0.006,7.60628 -35.289964,2.28469 c -1.50983,0.074 -2.830992,-1.20925 -2.853709,-2.77192 l -0.0077,-4.11581 c -0.07405,-1.50983 1.209251,-2.83099 2.771927,-2.85371 z"
         id="path3059"
         inkscape:connector-curvature="0"
         style="fill:#394050;fill-opacity:1;stroke-width:0.127" />
      <path
         sodipodi:nodetypes="ccccccccccccccsscccccc"
         d="m 140.65804,293.96777 -5.67696,0.13464 c -1.14597,0.0166 -2.04463,-0.85625 -2.11387,-2.05329 l 0.0332,-1.30298 c -0.065,-0.88477 0.49363,-1.88279 1.11719,-1.99606 0.78361,0.14492 1.54905,-0.96031 1.47197,-2.6785 0.015,-2.55314 -1.57192,-4.19727 -2.87313,-4.12599 -0.46956,-0.0453 -2.18775,0.0318 -2.18775,0.0318 l -0.1634,-7.65636 1.25014,-0.0182 c 0,0 0.31253,-0.005 0.98894,-0.0665 2.3961,-0.0348 2.46242,-2.64081 2.46242,-2.64081 -0.14977,-6.71874 -5.00988,-11.33686 -5.00988,-11.33686 l 1.12779,-1.2668 c 12.08351,6.90997 11.62309,14.67934 11.66095,17.2838 0.0348,2.39611 0.0712,4.89586 0.0803,5.52146 0.0197,1.35432 -2.5666,2.64232 -2.64049,4.7274 0.0136,0.93761 0.44246,1.76498 0.91808,2.22697 0.99045,0.0377 1.682,1.01755 1.64279,1.90383 l -0.0347,1.1988 c 0.0164,1.14571 -0.85625,2.0441 -2.05328,2.11386 z"
         id="path3059-3"
         inkscape:connector-curvature="0"
         style="fill:#394050;fill-opacity:1;stroke-width:0.127" />
      <path
         id="path39"
         transform="matrix(0.26458333,0,0,0.26458333,0,229.26665)"
         d="m 495.4375,112.34766 -4.26172,4.78711 c 0,0 16.45277,15.64917 18.6875,38.86328 h 26.5957 C 532.11576,143.2096 521.50219,127.25278 495.4375,112.34766 Z"
         style="fill:#ffffff;stroke-width:0.48000002"
         inkscape:connector-curvature="0" />
      <path
         id="path44"
         transform="matrix(0.26458333,0,0,0.26458333,0,229.26665)"
         d="m 495.4375,112.34766 -4.26172,4.78711 c 0,0 4.62714,4.4338 9.30664,12.02929 1.35335,-2.12753 2.15235,-4.64217 2.15235,-7.33984 v -5.08399 c -2.25879,-1.47138 -4.65245,-2.93732 -7.19727,-4.39257 z"
         style="fill:#394050;fill-opacity:1;stroke-width:0.48000002"
         inkscape:connector-curvature="0" />
      <path
         id="path49"
         transform="matrix(0.26458333,0,0,0.26458333,0,229.26665)"
         d="m 508.0957,146.4043 c 1.14982,4.19531 1.9078,8.74085 2.01563,13.57812 0,0 -0.14833,5.38563 -3.88672,8.24414 h 32.88281 c -0.61354,-5.93205 -2.2715,-13.47513 -6.92969,-21.82226 z"
         style="fill:#ffffff;stroke-width:0.48000002"
         inkscape:connector-curvature="0" />
    </g>
  </g>
</svg>
