<?xml version="1.0" encoding="UTF-8" standalone="no"?>
<!-- Created with Inkscape (http://www.inkscape.org/) -->

<svg
   xmlns:dc="http://purl.org/dc/elements/1.1/"
   xmlns:cc="http://creativecommons.org/ns#"
   xmlns:rdf="http://www.w3.org/1999/02/22-rdf-syntax-ns#"
   xmlns:svg="http://www.w3.org/2000/svg"
   xmlns="http://www.w3.org/2000/svg"
   xmlns:sodipodi="http://sodipodi.sourceforge.net/DTD/sodipodi-0.dtd"
   xmlns:inkscape="http://www.inkscape.org/namespaces/inkscape"
   width="256"
   height="256"
   viewBox="0 0 67.733332 67.733335"
   version="1.1"
   id="svg8"
   inkscape:version="0.92.2 5c3e80d, 2017-08-06"
   sodipodi:docname="uyg_cok_ort.svg">
  <defs
     id="defs2" />
  <sodipodi:namedview
     id="base"
     pagecolor="#ffffff"
     bordercolor="#666666"
     borderopacity="1.0"
     inkscape:pageopacity="0.0"
     inkscape:pageshadow="2"
     inkscape:zoom="0.9899495"
     inkscape:cx="557.28598"
     inkscape:cy="43.03536"
     inkscape:document-units="mm"
     inkscape:current-layer="layer1"
     showgrid="false"
     units="px"
     inkscape:window-width="1366"
     inkscape:window-height="715"
     inkscape:window-x="0"
     inkscape:window-y="24"
     inkscape:window-maximized="1" />
  <metadata
     id="metadata5">
    <rdf:RDF>
      <cc:Work
         rdf:about="">
        <dc:format>image/svg+xml</dc:format>
        <dc:type
           rdf:resource="http://purl.org/dc/dcmitype/StillImage" />
        <dc:title />
      </cc:Work>
    </rdf:RDF>
  </metadata>
  <g
     inkscape:label="Layer 1"
     inkscape:groupmode="layer"
     id="layer1"
     transform="translate(0,-229.26665)">
    <g
       id="g100"
       transform="translate(-65.481034,-0.26726953)">
      <rect
         ry="2.7019753"
         y="260.10507"
         x="72.410721"
         height="32.281471"
         width="54.323891"
         id="rect2997-3"
         style="fill:#394050;fill-opacity:1;stroke:none;stroke-width:0.12772974" />
      <path
         sodipodi:nodetypes="ccccc"
         inkscape:connector-curvature="0"
         id="path2999-6"
         d="m 72.44492,263.0921 55.40694,0.20111 v -6.03342 H 72.44492 Z"
         style="fill:#394050;fill-opacity:1;stroke:none;stroke-width:0.12772974" />
      <path
         sodipodi:nodetypes="ccccc"
         inkscape:connector-curvature="0"
         id="path3769-7"
         d="m 86.206939,263.14034 -5.566618,-0.0198 5.73505,-5.86014 5.563319,0.0222 z"
         style="fill:#ffffff;stroke:none;stroke-width:0.12772974" />
      <path
         sodipodi:nodetypes="ccccc"
         inkscape:connector-curvature="0"
         id="path3769-3-5"
         d="m 97.668796,263.14659 -5.566615,-0.0198 5.735073,-5.86014 5.563306,0.0222 z"
         style="fill:#ffffff;stroke:none;stroke-width:0.12772974" />
      <path
         sodipodi:nodetypes="ccccc"
         inkscape:connector-curvature="0"
         id="path3769-6-3"
         d="m 109.34953,263.12871 -5.56664,-0.0198 5.73507,-5.86014 5.56331,0.0222 z"
         style="fill:#ffffff;stroke:none;stroke-width:0.12772974" />
      <path
         sodipodi:nodetypes="ccccc"
         inkscape:connector-curvature="0"
         id="path3769-3-7-5"
         d="m 120.81137,263.13496 -5.5666,-0.0198 5.73506,-5.86014 5.56331,0.0222 z"
         style="fill:#ffffff;stroke:none;stroke-width:0.12772974" />
      <path
         sodipodi:nodetypes="ccccc"
         inkscape:connector-curvature="0"
         id="path2999-3-6"
         d="m 70.701859,251.6936 52.803581,-16.78544 1.80692,5.7565 -52.863811,16.59355 z"
         style="fill:#394050;fill-opacity:1;stroke:none;stroke-width:0.12772974" />
      <path
         sodipodi:nodetypes="ccccc"
         inkscape:connector-curvature="0"
         id="path3769-5-2"
         d="m 83.817769,247.52605 -5.305188,1.68601 7.226843,3.8736 5.301331,-1.68727 z"
         style="fill:#ffffff;stroke:none;stroke-width:0.12772974" />
      <path
         sodipodi:nodetypes="ccccc"
         inkscape:connector-curvature="0"
         id="path3769-3-6-9"
         d="m 94.751667,244.08744 -5.305185,1.686 7.226864,3.8736 5.301324,-1.68727 z"
         style="fill:#ffffff;stroke:none;stroke-width:0.12772974" />
      <path
         sodipodi:nodetypes="ccccc"
         inkscape:connector-curvature="0"
         id="path3769-6-2-1"
         d="m 105.90162,240.60628 -5.30521,1.68601 7.22686,3.8736 5.30132,-1.68727 z"
         style="fill:#ffffff;stroke:none;stroke-width:0.12772974" />
      <path
         sodipodi:nodetypes="ccccc"
         inkscape:connector-curvature="0"
         id="path3769-3-7-9-2"
         d="m 116.8355,237.16767 -5.30517,1.686 7.22685,3.8736 5.30132,-1.68727 z"
         style="fill:#ffffff;stroke:none;stroke-width:0.12772974" />
      <path
         sodipodi:nodetypes="cccccc"
         inkscape:connector-curvature="0"
         id="path3861-7"
         d="m 72.416147,263.19308 h 8.710312 c 0,0 1.156922,-3.63435 1.144782,-3.68322 l -4.479587,-8.00067 -5.475053,0.0121 z"
         style="fill:#394050;fill-opacity:1;stroke:none;stroke-width:0.12772974" />
      <path
         sodipodi:open="true"
         sodipodi:end="6.2784904"
         sodipodi:start="0"
         d="m 74.871612,252.99574 a 0.79637116,0.79637116 0 0 1 -0.795436,0.79637 0.79637116,0.79637116 0 0 1 -0.797304,-0.7945 0.79637116,0.79637116 0 0 1 0.793565,-0.79823 0.79637116,0.79637116 0 0 1 0.799166,0.79262"
         sodipodi:ry="0.79637116"
         sodipodi:rx="0.79637116"
         sodipodi:cy="252.99574"
         sodipodi:cx="74.075241"
         id="path3863-0"
         style="fill:#ffffff;fill-opacity:1;stroke:none;stroke-width:0.12772974"
         sodipodi:type="arc" />
      <path
         sodipodi:open="true"
         sodipodi:end="6.2784904"
         sodipodi:start="0"
         d="m 74.921386,261.35764 a 0.79637116,0.79637116 0 0 1 -0.795436,0.79637 0.79637116,0.79637116 0 0 1 -0.797304,-0.79451 0.79637116,0.79637116 0 0 1 0.793565,-0.79823 0.79637116,0.79637116 0 0 1 0.799167,0.79263"
         sodipodi:ry="0.79637116"
         sodipodi:rx="0.79637116"
         sodipodi:cy="261.35764"
         sodipodi:cx="74.125015"
         id="path3863-1-9"
         style="fill:#ffffff;fill-opacity:1;stroke:none;stroke-width:0.12772974"
         sodipodi:type="arc" />
      <path
         sodipodi:open="true"
         sodipodi:end="6.2784904"
         sodipodi:start="0"
         d="m 80.794632,261.60651 a 0.79637116,0.79637116 0 0 1 -0.795437,0.79637 0.79637116,0.79637116 0 0 1 -0.797303,-0.7945 0.79637116,0.79637116 0 0 1 0.793564,-0.79824 0.79637116,0.79637116 0 0 1 0.799167,0.79263"
         sodipodi:ry="0.79637116"
         sodipodi:rx="0.79637116"
         sodipodi:cy="261.60651"
         sodipodi:cx="79.99826"
         id="path3863-2-3"
         style="fill:#ffffff;fill-opacity:1;stroke:none;stroke-width:0.12772974"
         sodipodi:type="arc" />
      <path
         sodipodi:open="true"
         sodipodi:end="6.2786747"
         sodipodi:start="6.2787571"
         d="m 112.17672,277.9854 a 11.846022,11.945567 0 0 1 -11.79321,11.99835 11.846022,11.945567 0 0 1 -11.898603,-11.89206 11.846022,11.945567 0 0 1 11.792713,-11.99884 11.846022,11.945567 0 0 1 11.89909,11.89157"
         sodipodi:ry="11.945567"
         sodipodi:rx="11.846022"
         sodipodi:cy="278.0383"
         sodipodi:cx="100.33081"
         id="path3890"
         style="fill:none;stroke:#ffffff;stroke-width:1.40779865;stroke-miterlimit:4;stroke-dasharray:none;stroke-opacity:1"
         sodipodi:type="arc" />
      <path
         inkscape:connector-curvature="0"
         id="path3892"
         d="m 96.34128,271.87738 v 12.14227 l 10.73446,-6.15912 z"
         style="fill:#ffffff;fill-opacity:1;stroke:none;stroke-width:0.12772974" />
    </g>
  </g>
</svg>
