<?xml version="1.0" encoding="UTF-8" standalone="no"?>
<!-- Created with Inkscape (http://www.inkscape.org/) -->

<svg
   xmlns:dc="http://purl.org/dc/elements/1.1/"
   xmlns:cc="http://creativecommons.org/ns#"
   xmlns:rdf="http://www.w3.org/1999/02/22-rdf-syntax-ns#"
   xmlns:svg="http://www.w3.org/2000/svg"
   xmlns="http://www.w3.org/2000/svg"
   xmlns:sodipodi="http://sodipodi.sourceforge.net/DTD/sodipodi-0.dtd"
   xmlns:inkscape="http://www.inkscape.org/namespaces/inkscape"
   width="256"
   height="256"
   viewBox="0 0 67.733332 67.733335"
   version="1.1"
   id="svg8"
   inkscape:version="0.92.2 5c3e80d, 2017-08-06"
   sodipodi:docname="uyg_egitim.svg">
  <defs
     id="defs2" />
  <sodipodi:namedview
     id="base"
     pagecolor="#ffffff"
     bordercolor="#666666"
     borderopacity="1.0"
     inkscape:pageopacity="0.0"
     inkscape:pageshadow="2"
     inkscape:zoom="0.49497475"
     inkscape:cx="957.33129"
     inkscape:cy="247.513"
     inkscape:document-units="mm"
     inkscape:current-layer="layer1"
     showgrid="false"
     units="px"
     inkscape:window-width="1366"
     inkscape:window-height="715"
     inkscape:window-x="0"
     inkscape:window-y="24"
     inkscape:window-maximized="1"
     showguides="false" />
  <metadata
     id="metadata5">
    <rdf:RDF>
      <cc:Work
         rdf:about="">
        <dc:format>image/svg+xml</dc:format>
        <dc:type
           rdf:resource="http://purl.org/dc/dcmitype/StillImage" />
        <dc:title />
      </cc:Work>
    </rdf:RDF>
  </metadata>
  <g
     inkscape:label="Layer 1"
     inkscape:groupmode="layer"
     id="layer1"
     transform="translate(0,-229.26665)">
    <g
       id="g33"
       transform="translate(-73.766389,-4.2763124)">
      <path
         sodipodi:nodetypes="czczczczc"
         inkscape:connector-curvature="0"
         id="path2990"
         d="m 80.657719,269.61733 c 0,0 2.890844,8.32591 2.539999,12.7 -0.350844,4.37408 -2.539999,12.7 -2.539999,12.7 0,0 18.429408,-4.31378 27.568551,-4.12146 9.13915,0.19231 25.77144,4.12146 25.77144,4.12146 0,0 -2.69001,-8.35568 -2.54,-12.7 0.15001,-4.34433 2.54,-12.7 2.54,-12.7 0,0 -16.48675,4.93052 -25.5241,4.83059 -9.037343,-0.0999 -27.815891,-4.83059 -27.815891,-4.83059 z"
         style="fill:#394050;fill-opacity:1;stroke:none;stroke-width:0.12699999" />
      <path
         sodipodi:nodetypes="ccccc"
         inkscape:connector-curvature="0"
         id="path3778"
         d="m 102.54785,274.14561 h 9.95534 v 17.06629 h -9.8935 z"
         style="fill:#ffffff;stroke:none;stroke-width:0.12699999" />
      <path
         id="path9"
         d="m 133.10899,258.39972 3.22264,-1.73279 -3.22264,-1.7846 v -0.84674 c 0,0 0.90749,-4.60173 -4.2498,-2.19547 -0.2626,0.14291 -0.40373,0.28761 -0.46089,0.42873 l -21.26869,-11.79549 -27.947978,15.99528 12.656326,5.72217 c -0.07838,-0.0836 31.935602,1.26915 31.935602,1.26915 l 7.92955,-4.3046 c 0,3.62458 0,11.37748 0,12.67082 h -1.94001 v 4.50348 l 2.57953,-1.78281 2.86358,1.78281 v -4.50526 h -2.09722 z m -1.40767,-5.14657 c 0,0.10897 0,0.40908 0,0.84853 l -1.70064,-0.94321 c 0.61988,-0.41087 1.70064,-0.98072 1.70064,0.0947 z m -0.57521,4.96972 c -0.75207,0 -1.3648,-0.60916 -1.3648,-1.36122 0,-0.75207 0.61273,-1.36301 1.3648,-1.36301 0.75385,0 1.36301,0.61094 1.36301,1.36301 0,0.75206 -0.60916,1.36122 -1.36301,1.36122 z"
         inkscape:connector-curvature="0"
         style="fill:#394050;fill-opacity:1;stroke-width:0.12699999"
         sodipodi:nodetypes="ccccccccccccccccccccsccssssss" />
      <path
         id="path7"
         d="m 91.600574,260.53266 v 8.95693 c 0,0 8.588936,-3.57812 16.204286,-3.57812 7.61536,0 16.20608,3.57812 16.20608,3.57812 v -9.08197 c 0,0 -8.19414,-4.33377 -16.33291,-4.33377 -8.135193,-0.004 -16.077456,4.45881 -16.077456,4.45881 z"
         inkscape:connector-curvature="0"
         style="fill:#394050;stroke-width:0.12699999" />
    </g>
  </g>
</svg>
