<?xml version="1.0" encoding="UTF-8" standalone="no"?>
<!-- Created with Inkscape (http://www.inkscape.org/) -->

<svg
   xmlns:dc="http://purl.org/dc/elements/1.1/"
   xmlns:cc="http://creativecommons.org/ns#"
   xmlns:rdf="http://www.w3.org/1999/02/22-rdf-syntax-ns#"
   xmlns:svg="http://www.w3.org/2000/svg"
   xmlns="http://www.w3.org/2000/svg"
   xmlns:sodipodi="http://sodipodi.sourceforge.net/DTD/sodipodi-0.dtd"
   xmlns:inkscape="http://www.inkscape.org/namespaces/inkscape"
   width="256"
   height="256"
   viewBox="0 0 67.733332 67.733335"
   version="1.1"
   id="svg8"
   inkscape:version="0.92.2 5c3e80d, 2017-08-06"
   sodipodi:docname="uyg_ofis.svg">
  <defs
     id="defs2" />
  <sodipodi:namedview
     id="base"
     pagecolor="#ffffff"
     bordercolor="#666666"
     borderopacity="1.0"
     inkscape:pageopacity="0.0"
     inkscape:pageshadow="2"
     inkscape:zoom="0.9899495"
     inkscape:cx="369.46803"
     inkscape:cy="72.735585"
     inkscape:document-units="mm"
     inkscape:current-layer="layer1"
     showgrid="false"
     units="px"
     inkscape:window-width="1366"
     inkscape:window-height="715"
     inkscape:window-x="0"
     inkscape:window-y="24"
     inkscape:window-maximized="1" />
  <metadata
     id="metadata5">
    <rdf:RDF>
      <cc:Work
         rdf:about="">
        <dc:format>image/svg+xml</dc:format>
        <dc:type
           rdf:resource="http://purl.org/dc/dcmitype/StillImage" />
        <dc:title />
      </cc:Work>
    </rdf:RDF>
  </metadata>
  <g
     inkscape:label="Layer 1"
     inkscape:groupmode="layer"
     id="layer1"
     transform="translate(0,-229.26665)">
    <g
       id="g167"
       transform="matrix(0.48,0,0,0.48,-32.446274,129.93627)">
      <rect
         rx="8.3321819"
         ry="9.4148331"
         y="218.4926"
         x="85.027351"
         height="119.0625"
         width="100.86327"
         id="rect3003"
         style="fill:#394050;fill-opacity:1;stroke:none;stroke-width:0.26458332" />
      <path
         sodipodi:nodetypes="cccczcczcczcczc"
         inkscape:connector-curvature="0"
         id="path3773"
         d="m 90.426844,222.51867 c -0.712165,0.87577 -0.598559,2.03209 -0.598559,2.03209 l 0.02095,98.97808 0.0014,7.25635 c 0,0 -0.04675,1.13492 0.48015,1.72671 0.52694,0.59179 1.781523,0.6473 1.781523,0.6473 l 86.898752,-0.004 c 0,0 1.45563,0.08 2.11034,-0.4935 0.65471,-0.57345 0.59742,-1.84804 0.59742,-1.84804 l -0.0332,-103.12687 c 0,0 0.34398,-2.82141 -1.3358,-4.46525 -1.67978,-1.64383 -4.68418,-1.23904 -4.68418,-1.23904 l -83.347714,-0.1983 c 0,0 -1.179074,-0.14025 -1.891224,0.73545 z"
         style="fill:#ffffff;stroke:none;stroke-width:0.26458332" />
      <rect
         ry="0"
         y="244.90628"
         x="101.29095"
         height="1.5467948"
         width="27.598078"
         id="rect3001-3-7"
         style="fill:#394050;fill-opacity:1;stroke:none;stroke-width:0.26458332" />
      <rect
         ry="0"
         y="233.81155"
         x="100.96531"
         height="1.5467948"
         width="66.512177"
         id="rect3001-6-5"
         style="fill:#394050;fill-opacity:1;stroke:none;stroke-width:0.26458332" />
      <rect
         ry="0"
         y="304.37289"
         x="101.52121"
         height="1.5467948"
         width="66.512177"
         id="rect3001-6-5-7-3"
         style="fill:#394050;fill-opacity:1;stroke:none;stroke-width:0.26458332" />
      <rect
         ry="0"
         y="315.6434"
         x="101.52121"
         height="1.5467948"
         width="41.874039"
         id="rect3001-3-7-3-5-5"
         style="fill:#394050;fill-opacity:1;stroke:none;stroke-width:0.26458332" />
      <rect
         transform="rotate(90)"
         rx="2.0672441"
         ry="2.9234128"
         y="-168.58296"
         x="239.54346"
         height="36.970261"
         width="25.024536"
         id="rect3003-3"
         style="fill:#394050;fill-opacity:1;stroke:none;stroke-width:0.26458332" />
      <path
         sodipodi:nodetypes="cccczcczcczcczc"
         inkscape:connector-curvature="0"
         id="path3773-6"
         d="m 167.24938,240.74934 c -0.27231,-0.17818 -0.63185,-0.14975 -0.63185,-0.14975 l -30.77578,0.005 -2.25625,2.7e-4 c 0,0 -0.35289,-0.0117 -0.5369,0.12013 -0.18401,0.13184 -0.20127,0.44574 -0.20127,0.44574 l 0.001,21.74192 c 0,0 -0.0249,0.3642 0.15345,0.528 0.17831,0.16381 0.57462,0.14948 0.57462,0.14948 l 32.06579,-0.008 c 0,0 0.87728,0.0861 1.3884,-0.33422 0.51113,-0.42027 0.38526,-1.17197 0.38526,-1.17197 l 0.0617,-20.85346 c 0,0 0.0436,-0.295 -0.22868,-0.47318 z"
         style="fill:#ffffff;stroke:none;stroke-width:0.26458332" />
      <path
         inkscape:connector-curvature="0"
         id="path17"
         d="m 151.41816,259.64949 h -2.74837 c -0.37945,0 -0.68714,-0.30768 -0.68714,-0.68713 v -10.99357 c 0,-0.37944 0.30769,-0.68713 0.68714,-0.68713 h 2.74837 c 0.37944,0 0.68713,0.30769 0.68713,0.68713 v 10.99357 c 0,0.37945 -0.30769,0.68713 -0.68713,0.68713 z"
         style="fill:#394050;fill-opacity:1;stroke-width:0.26458332" />
      <path
         inkscape:connector-curvature="0"
         id="path21"
         d="m 145.23428,259.64949 h -2.74837 c -0.37945,0 -0.68713,-0.30768 -0.68713,-0.68713 v -7.55806 c 0,-0.37945 0.30768,-0.68714 0.68713,-0.68714 h 2.74837 c 0.37945,0 0.68713,0.30769 0.68713,0.68714 v 7.55806 c 0,0.37945 -0.30768,0.68713 -0.68713,0.68713 z"
         style="fill:#394050;fill-opacity:1;stroke-width:0.26458332" />
      <path
         inkscape:connector-curvature="0"
         id="path25"
         d="m 139.05041,259.64949 h -2.74837 c -0.37945,0 -0.68714,-0.30768 -0.68714,-0.68713 v -4.12264 c 0,-0.37944 0.30769,-0.68713 0.68714,-0.68713 h 2.74837 c 0.37944,0 0.68713,0.30769 0.68713,0.68713 v 4.12264 c -8e-5,0.37945 -0.30769,0.68713 -0.68713,0.68713 z"
         style="fill:#394050;fill-opacity:1;stroke-width:0.26458332" />
      <path
         inkscape:connector-curvature="0"
         id="path29"
         d="m 157.60203,259.64949 h -2.74837 c -0.37945,0 -0.68713,-0.30768 -0.68713,-0.68713 v -7.55806 c 0,-0.37945 0.30768,-0.68714 0.68713,-0.68714 h 2.74837 c 0.37945,0 0.68713,0.30769 0.68713,0.68714 v 7.55806 c 0,0.37945 -0.30768,0.68713 -0.68713,0.68713 z"
         style="fill:#394050;fill-opacity:1;stroke-width:0.26458332" />
      <path
         inkscape:connector-curvature="0"
         id="path33"
         d="m 163.78598,259.64949 h -2.74837 c -0.37945,0 -0.68713,-0.30768 -0.68713,-0.68713 v -15.1162 c 0,-0.37945 0.30768,-0.68713 0.68713,-0.68713 h 2.74837 c 0.37945,0 0.68713,0.30768 0.68713,0.68713 v 15.1162 c -7e-5,0.37945 -0.30768,0.68713 -0.68713,0.68713 z"
         style="fill:#394050;fill-opacity:1;stroke-width:0.26458332" />
      <path
         inkscape:connector-curvature="0"
         id="path37"
         d="m 165.84722,260.33647 h -31.6065 c -0.37945,0 -0.68713,-0.30769 -0.68713,-0.68714 v 0 c 0,-0.37944 0.30768,-0.68713 0.68713,-0.68713 h 31.60658 c 0.37945,0 0.68713,0.30769 0.68713,0.68713 v 0 c -7e-5,0.37961 -0.30768,0.68714 -0.68721,0.68714 z"
         style="fill:#394050;stroke-width:0.26458332" />
      <rect
         y="275.39899"
         x="104.27155"
         height="25.520897"
         width="61.7416"
         id="rect3771-5-9-7"
         style="fill:#394050;fill-opacity:1;stroke:none;stroke-width:0.26458332" />
      <rect
         y="277.05658"
         x="106.08884"
         height="6.0383077"
         width="13.046697"
         id="rect3771-5-9"
         style="fill:#ffffff;fill-opacity:1;stroke:none;stroke-width:0.26458332" />
      <rect
         y="277.05658"
         x="121.14272"
         height="6.0383077"
         width="13.046697"
         id="rect3771-7-6-3"
         style="fill:#ffffff;fill-opacity:1;stroke:none;stroke-width:0.26458332" />
      <rect
         y="277.05658"
         x="136.19661"
         height="6.0383077"
         width="13.046697"
         id="rect3771-7-5-2-6"
         style="fill:#ffffff;fill-opacity:1;stroke:none;stroke-width:0.26458332" />
      <rect
         y="277.05658"
         x="151.25049"
         height="6.0383077"
         width="13.046697"
         id="rect3771-7-5-3-9-0"
         style="fill:#ffffff;fill-opacity:1;stroke:none;stroke-width:0.26458332" />
      <rect
         y="285.16696"
         x="106.21778"
         height="6.0383077"
         width="13.046697"
         id="rect3771-6"
         style="fill:#ffffff;fill-opacity:1;stroke:none;stroke-width:0.26458332" />
      <rect
         y="285.16696"
         x="121.27166"
         height="6.0383077"
         width="13.046697"
         id="rect3771-7-26"
         style="fill:#ffffff;fill-opacity:1;stroke:none;stroke-width:0.26458332" />
      <rect
         y="285.16696"
         x="136.32553"
         height="6.0383077"
         width="13.046697"
         id="rect3771-7-5-1"
         style="fill:#ffffff;fill-opacity:1;stroke:none;stroke-width:0.26458332" />
      <rect
         y="285.16696"
         x="151.37943"
         height="6.0383077"
         width="13.046697"
         id="rect3771-7-5-3-8"
         style="fill:#ffffff;fill-opacity:1;stroke:none;stroke-width:0.26458332" />
      <rect
         y="293.22397"
         x="106.21778"
         height="6.0383077"
         width="13.046697"
         id="rect3771-5-7"
         style="fill:#ffffff;fill-opacity:1;stroke:none;stroke-width:0.26458332" />
      <rect
         y="293.22397"
         x="121.27166"
         height="6.0383077"
         width="13.046697"
         id="rect3771-7-6-9"
         style="fill:#ffffff;fill-opacity:1;stroke:none;stroke-width:0.26458332" />
      <rect
         y="293.22397"
         x="136.32555"
         height="6.0383077"
         width="13.046697"
         id="rect3771-7-5-2-2"
         style="fill:#ffffff;fill-opacity:1;stroke:none;stroke-width:0.26458332" />
      <rect
         y="293.22397"
         x="151.37943"
         height="6.0383077"
         width="13.046697"
         id="rect3771-7-5-3-9-02"
         style="fill:#ffffff;fill-opacity:1;stroke:none;stroke-width:0.26458332" />
      <rect
         ry="0"
         y="266.54501"
         x="101.35011"
         height="1.5467948"
         width="66.512177"
         id="rect3001-6-5-3"
         style="fill:#394050;fill-opacity:1;stroke:none;stroke-width:0.26458332" />
      <path
         sodipodi:nodetypes="cccc"
         inkscape:connector-curvature="0"
         id="path3868"
         d="m 144.11841,317.22797 8.57624,-7.4228 -7.03038,-3.62678 z"
         style="fill:#394050;fill-opacity:1;stroke:none;stroke-width:0.26458332" />
      <path
         sodipodi:nodetypes="cccc"
         inkscape:connector-curvature="0"
         id="path3868-3"
         d="m 144.11019,317.22705 2.37307,-2.05391 -1.93423,-1.05619 z"
         style="fill:#394050;fill-opacity:1;stroke:none;stroke-width:0.26458332" />
      <path
         sodipodi:nodetypes="ccccc"
         inkscape:connector-curvature="0"
         id="path3888"
         d="m 145.66952,306.19491 36.14004,-62.49543 6.7072,4.18214 -35.98221,62.00226 z"
         style="fill:#394050;fill-opacity:1;stroke:none;stroke-width:0.26458332" />
      <path
         sodipodi:nodetypes="ccccc"
         inkscape:connector-curvature="0"
         id="path3888-6"
         d="m 179.76927,247.20612 4.75423,-8.26566 6.80584,4.18214 -4.71477,8.08812 z"
         style="fill:#394050;fill-opacity:1;stroke:none;stroke-width:0.26458332" />
      <path
         inkscape:connector-curvature="0"
         id="path3803"
         d="m 177.93663,251.60764 -4.59443,1.83777 -9.18885,15.98861"
         style="fill:none;stroke:#394050;stroke-width:1.68935013;stroke-linecap:butt;stroke-linejoin:miter;stroke-miterlimit:4;stroke-dasharray:none;stroke-opacity:1" />
      <rect
         ry="0"
         y="256.12448"
         x="101.2687"
         height="1.5467948"
         width="27.598078"
         id="rect3001-3-7-6"
         style="fill:#394050;fill-opacity:1;stroke:none;stroke-width:0.26458332" />
    </g>
  </g>
</svg>
