<?xml version="1.0" encoding="UTF-8" standalone="no"?>
<!-- Created with Inkscape (http://www.inkscape.org/) -->

<svg
   xmlns:dc="http://purl.org/dc/elements/1.1/"
   xmlns:cc="http://creativecommons.org/ns#"
   xmlns:rdf="http://www.w3.org/1999/02/22-rdf-syntax-ns#"
   xmlns:svg="http://www.w3.org/2000/svg"
   xmlns="http://www.w3.org/2000/svg"
   xmlns:sodipodi="http://sodipodi.sourceforge.net/DTD/sodipodi-0.dtd"
   xmlns:inkscape="http://www.inkscape.org/namespaces/inkscape"
   width="256"
   height="256"
   viewBox="0 0 67.733332 67.733335"
   version="1.1"
   id="svg8"
   inkscape:version="0.92.2 5c3e80d, 2017-08-06"
   sodipodi:docname="yeniden_baslat.svg">
  <defs
     id="defs2" />
  <sodipodi:namedview
     id="base"
     pagecolor="#ffffff"
     bordercolor="#666666"
     borderopacity="1.0"
     inkscape:pageopacity="0.0"
     inkscape:pageshadow="2"
     inkscape:zoom="0.98994949"
     inkscape:cx="137.16115"
     inkscape:cy="112.15914"
     inkscape:document-units="mm"
     inkscape:current-layer="layer1"
     showgrid="false"
     units="px"
     inkscape:window-width="1366"
     inkscape:window-height="715"
     inkscape:window-x="0"
     inkscape:window-y="24"
     inkscape:window-maximized="1" />
  <metadata
     id="metadata5">
    <rdf:RDF>
      <cc:Work
         rdf:about="">
        <dc:format>image/svg+xml</dc:format>
        <dc:type
           rdf:resource="http://purl.org/dc/dcmitype/StillImage" />
        <dc:title />
      </cc:Work>
    </rdf:RDF>
  </metadata>
  <g
     inkscape:label="Layer 1"
     inkscape:groupmode="layer"
     id="layer1"
     transform="translate(0,-229.26665)">
    <g
       id="g18"
       transform="matrix(0.90107926,0,0,0.90107926,-63.539017,31.660153)">
      <path
         inkscape:connector-curvature="0"
         id="path3834"
         d="m 111.77224,228.19269 v 3.46392 c 14.34802,0 25.97939,11.63136 25.97939,25.97938 0,14.34801 -11.63137,25.97937 -25.97939,25.97937 -14.34801,0 -25.97937,-11.63136 -25.97937,-25.97937 0,-0.78486 0.03722,-1.51465 0.108245,-2.2732 l 4.005151,4.00515 h 4.546391 L 84.060906,248.97619 73.669157,259.36794 h 4.438144 l 4.329897,-4.22165 c -0.09075,0.83175 -0.108247,1.64096 -0.108247,2.4897 0,16.26108 13.18221,29.44329 29.443289,29.44329 16.26109,0 29.4433,-13.18221 29.4433,-29.44329 0,-16.26109 -13.18221,-29.4433 -29.4433,-29.4433 z"
         style="fill:#394050;fill-opacity:1;stroke:none;stroke-width:3.46391773" />
      <path
         sodipodi:nodetypes="ccccccsssccssscc"
         id="path3852"
         d="m 110.04022,240.31646 v 17.31959 h 3.46392 v -17.31959 z m -5.19581,5.41237 c -4.1352,2.39732 -6.927837,6.78336 -6.927837,11.90722 0,7.65227 6.203397,13.85567 13.855667,13.85567 7.65228,0 13.85567,-6.2034 13.85567,-13.85567 0,-5.12386 -2.79264,-9.5099 -6.92783,-11.90722 v 4.22165 c 2.1092,1.90195 3.46392,4.62184 3.46392,7.68557 0,5.7392 -4.65255,10.39175 -10.39176,10.39175 -5.73921,0 -10.39175,-4.65255 -10.39175,-10.39175 0,-3.06373 1.35472,-5.78362 3.46392,-7.68557 z"
         style="fill:#394050;fill-opacity:1;stroke:none;stroke-width:3.46391773"
         inkscape:connector-curvature="0" />
    </g>
  </g>
</svg>
